%TF.GenerationSoftware,KiCad,Pcbnew,(7.0.0)*%
%TF.CreationDate,2025-02-23T22:01:52+09:00*%
%TF.ProjectId,EGTtoCANBus_Module,45475474-6f43-4414-9e42-75735f4d6f64,rev?*%
%TF.SameCoordinates,Original*%
%TF.FileFunction,Legend,Bot*%
%TF.FilePolarity,Positive*%
%FSLAX46Y46*%
G04 Gerber Fmt 4.6, Leading zero omitted, Abs format (unit mm)*
G04 Created by KiCad (PCBNEW (7.0.0)) date 2025-02-23 22:01:52*
%MOMM*%
%LPD*%
G01*
G04 APERTURE LIST*
G04 Aperture macros list*
%AMRoundRect*
0 Rectangle with rounded corners*
0 $1 Rounding radius*
0 $2 $3 $4 $5 $6 $7 $8 $9 X,Y pos of 4 corners*
0 Add a 4 corners polygon primitive as box body*
4,1,4,$2,$3,$4,$5,$6,$7,$8,$9,$2,$3,0*
0 Add four circle primitives for the rounded corners*
1,1,$1+$1,$2,$3*
1,1,$1+$1,$4,$5*
1,1,$1+$1,$6,$7*
1,1,$1+$1,$8,$9*
0 Add four rect primitives between the rounded corners*
20,1,$1+$1,$2,$3,$4,$5,0*
20,1,$1+$1,$4,$5,$6,$7,0*
20,1,$1+$1,$6,$7,$8,$9,0*
20,1,$1+$1,$8,$9,$2,$3,0*%
%AMFreePoly0*
4,1,19,0.500000,-0.750000,0.000000,-0.750000,0.000000,-0.744911,-0.071157,-0.744911,-0.207708,-0.704816,-0.327430,-0.627875,-0.420627,-0.520320,-0.479746,-0.390866,-0.500000,-0.250000,-0.500000,0.250000,-0.479746,0.390866,-0.420627,0.520320,-0.327430,0.627875,-0.207708,0.704816,-0.071157,0.744911,0.000000,0.744911,0.000000,0.750000,0.500000,0.750000,0.500000,-0.750000,0.500000,-0.750000,
$1*%
%AMFreePoly1*
4,1,19,0.000000,0.744911,0.071157,0.744911,0.207708,0.704816,0.327430,0.627875,0.420627,0.520320,0.479746,0.390866,0.500000,0.250000,0.500000,-0.250000,0.479746,-0.390866,0.420627,-0.520320,0.327430,-0.627875,0.207708,-0.704816,0.071157,-0.744911,0.000000,-0.744911,0.000000,-0.750000,-0.500000,-0.750000,-0.500000,0.750000,0.000000,0.750000,0.000000,0.744911,0.000000,0.744911,
$1*%
G04 Aperture macros list end*
%ADD10C,0.187500*%
%ADD11C,0.125000*%
%ADD12C,0.300000*%
%ADD13C,0.100000*%
%ADD14C,0.150000*%
%ADD15C,0.120000*%
%ADD16C,0.200000*%
%ADD17C,0.127000*%
%ADD18C,1.226200*%
%ADD19C,1.576200*%
%ADD20C,0.010000*%
%ADD21R,1.700000X1.700000*%
%ADD22O,1.700000X1.700000*%
%ADD23FreePoly0,270.000000*%
%ADD24FreePoly1,270.000000*%
%ADD25C,3.000000*%
%ADD26R,1.800000X1.800000*%
%ADD27C,1.800000*%
%ADD28C,2.859000*%
%ADD29C,2.000000*%
%ADD30RoundRect,0.250000X-0.600000X0.600000X-0.600000X-0.600000X0.600000X-0.600000X0.600000X0.600000X0*%
%ADD31C,1.700000*%
G04 APERTURE END LIST*
D10*
X201758571Y-58488095D02*
X201758571Y-58821428D01*
X202282380Y-58964285D02*
X202282380Y-58488095D01*
X202282380Y-58488095D02*
X201282380Y-58488095D01*
X201282380Y-58488095D02*
X201282380Y-58964285D01*
X201330000Y-59916666D02*
X201282380Y-59821428D01*
X201282380Y-59821428D02*
X201282380Y-59678571D01*
X201282380Y-59678571D02*
X201330000Y-59535714D01*
X201330000Y-59535714D02*
X201425238Y-59440476D01*
X201425238Y-59440476D02*
X201520476Y-59392857D01*
X201520476Y-59392857D02*
X201710952Y-59345238D01*
X201710952Y-59345238D02*
X201853809Y-59345238D01*
X201853809Y-59345238D02*
X202044285Y-59392857D01*
X202044285Y-59392857D02*
X202139523Y-59440476D01*
X202139523Y-59440476D02*
X202234761Y-59535714D01*
X202234761Y-59535714D02*
X202282380Y-59678571D01*
X202282380Y-59678571D02*
X202282380Y-59773809D01*
X202282380Y-59773809D02*
X202234761Y-59916666D01*
X202234761Y-59916666D02*
X202187142Y-59964285D01*
X202187142Y-59964285D02*
X201853809Y-59964285D01*
X201853809Y-59964285D02*
X201853809Y-59773809D01*
X201282380Y-60250000D02*
X201282380Y-60821428D01*
X202282380Y-60535714D02*
X201282380Y-60535714D01*
X201282380Y-61611905D02*
X201282380Y-62183333D01*
X202282380Y-61897619D02*
X201282380Y-61897619D01*
X201282380Y-62707143D02*
X201282380Y-62897619D01*
X201282380Y-62897619D02*
X201330000Y-62992857D01*
X201330000Y-62992857D02*
X201425238Y-63088095D01*
X201425238Y-63088095D02*
X201615714Y-63135714D01*
X201615714Y-63135714D02*
X201949047Y-63135714D01*
X201949047Y-63135714D02*
X202139523Y-63088095D01*
X202139523Y-63088095D02*
X202234761Y-62992857D01*
X202234761Y-62992857D02*
X202282380Y-62897619D01*
X202282380Y-62897619D02*
X202282380Y-62707143D01*
X202282380Y-62707143D02*
X202234761Y-62611905D01*
X202234761Y-62611905D02*
X202139523Y-62516667D01*
X202139523Y-62516667D02*
X201949047Y-62469048D01*
X201949047Y-62469048D02*
X201615714Y-62469048D01*
X201615714Y-62469048D02*
X201425238Y-62516667D01*
X201425238Y-62516667D02*
X201330000Y-62611905D01*
X201330000Y-62611905D02*
X201282380Y-62707143D01*
X202187142Y-64735714D02*
X202234761Y-64688095D01*
X202234761Y-64688095D02*
X202282380Y-64545238D01*
X202282380Y-64545238D02*
X202282380Y-64450000D01*
X202282380Y-64450000D02*
X202234761Y-64307143D01*
X202234761Y-64307143D02*
X202139523Y-64211905D01*
X202139523Y-64211905D02*
X202044285Y-64164286D01*
X202044285Y-64164286D02*
X201853809Y-64116667D01*
X201853809Y-64116667D02*
X201710952Y-64116667D01*
X201710952Y-64116667D02*
X201520476Y-64164286D01*
X201520476Y-64164286D02*
X201425238Y-64211905D01*
X201425238Y-64211905D02*
X201330000Y-64307143D01*
X201330000Y-64307143D02*
X201282380Y-64450000D01*
X201282380Y-64450000D02*
X201282380Y-64545238D01*
X201282380Y-64545238D02*
X201330000Y-64688095D01*
X201330000Y-64688095D02*
X201377619Y-64735714D01*
X201996666Y-65116667D02*
X201996666Y-65592857D01*
X202282380Y-65021429D02*
X201282380Y-65354762D01*
X201282380Y-65354762D02*
X202282380Y-65688095D01*
X202282380Y-66021429D02*
X201282380Y-66021429D01*
X201282380Y-66021429D02*
X202282380Y-66592857D01*
X202282380Y-66592857D02*
X201282380Y-66592857D01*
X201901428Y-67069048D02*
X201901428Y-67830953D01*
X201758571Y-68640476D02*
X201806190Y-68783333D01*
X201806190Y-68783333D02*
X201853809Y-68830952D01*
X201853809Y-68830952D02*
X201949047Y-68878571D01*
X201949047Y-68878571D02*
X202091904Y-68878571D01*
X202091904Y-68878571D02*
X202187142Y-68830952D01*
X202187142Y-68830952D02*
X202234761Y-68783333D01*
X202234761Y-68783333D02*
X202282380Y-68688095D01*
X202282380Y-68688095D02*
X202282380Y-68307143D01*
X202282380Y-68307143D02*
X201282380Y-68307143D01*
X201282380Y-68307143D02*
X201282380Y-68640476D01*
X201282380Y-68640476D02*
X201330000Y-68735714D01*
X201330000Y-68735714D02*
X201377619Y-68783333D01*
X201377619Y-68783333D02*
X201472857Y-68830952D01*
X201472857Y-68830952D02*
X201568095Y-68830952D01*
X201568095Y-68830952D02*
X201663333Y-68783333D01*
X201663333Y-68783333D02*
X201710952Y-68735714D01*
X201710952Y-68735714D02*
X201758571Y-68640476D01*
X201758571Y-68640476D02*
X201758571Y-68307143D01*
X201282380Y-69307143D02*
X202091904Y-69307143D01*
X202091904Y-69307143D02*
X202187142Y-69354762D01*
X202187142Y-69354762D02*
X202234761Y-69402381D01*
X202234761Y-69402381D02*
X202282380Y-69497619D01*
X202282380Y-69497619D02*
X202282380Y-69688095D01*
X202282380Y-69688095D02*
X202234761Y-69783333D01*
X202234761Y-69783333D02*
X202187142Y-69830952D01*
X202187142Y-69830952D02*
X202091904Y-69878571D01*
X202091904Y-69878571D02*
X201282380Y-69878571D01*
X202234761Y-70307143D02*
X202282380Y-70450000D01*
X202282380Y-70450000D02*
X202282380Y-70688095D01*
X202282380Y-70688095D02*
X202234761Y-70783333D01*
X202234761Y-70783333D02*
X202187142Y-70830952D01*
X202187142Y-70830952D02*
X202091904Y-70878571D01*
X202091904Y-70878571D02*
X201996666Y-70878571D01*
X201996666Y-70878571D02*
X201901428Y-70830952D01*
X201901428Y-70830952D02*
X201853809Y-70783333D01*
X201853809Y-70783333D02*
X201806190Y-70688095D01*
X201806190Y-70688095D02*
X201758571Y-70497619D01*
X201758571Y-70497619D02*
X201710952Y-70402381D01*
X201710952Y-70402381D02*
X201663333Y-70354762D01*
X201663333Y-70354762D02*
X201568095Y-70307143D01*
X201568095Y-70307143D02*
X201472857Y-70307143D01*
X201472857Y-70307143D02*
X201377619Y-70354762D01*
X201377619Y-70354762D02*
X201330000Y-70402381D01*
X201330000Y-70402381D02*
X201282380Y-70497619D01*
X201282380Y-70497619D02*
X201282380Y-70735714D01*
X201282380Y-70735714D02*
X201330000Y-70878571D01*
X202282380Y-71907143D02*
X201282380Y-71907143D01*
X201282380Y-71907143D02*
X201996666Y-72240476D01*
X201996666Y-72240476D02*
X201282380Y-72573809D01*
X201282380Y-72573809D02*
X202282380Y-72573809D01*
X201282380Y-73240476D02*
X201282380Y-73430952D01*
X201282380Y-73430952D02*
X201330000Y-73526190D01*
X201330000Y-73526190D02*
X201425238Y-73621428D01*
X201425238Y-73621428D02*
X201615714Y-73669047D01*
X201615714Y-73669047D02*
X201949047Y-73669047D01*
X201949047Y-73669047D02*
X202139523Y-73621428D01*
X202139523Y-73621428D02*
X202234761Y-73526190D01*
X202234761Y-73526190D02*
X202282380Y-73430952D01*
X202282380Y-73430952D02*
X202282380Y-73240476D01*
X202282380Y-73240476D02*
X202234761Y-73145238D01*
X202234761Y-73145238D02*
X202139523Y-73050000D01*
X202139523Y-73050000D02*
X201949047Y-73002381D01*
X201949047Y-73002381D02*
X201615714Y-73002381D01*
X201615714Y-73002381D02*
X201425238Y-73050000D01*
X201425238Y-73050000D02*
X201330000Y-73145238D01*
X201330000Y-73145238D02*
X201282380Y-73240476D01*
X202282380Y-74097619D02*
X201282380Y-74097619D01*
X201282380Y-74097619D02*
X201282380Y-74335714D01*
X201282380Y-74335714D02*
X201330000Y-74478571D01*
X201330000Y-74478571D02*
X201425238Y-74573809D01*
X201425238Y-74573809D02*
X201520476Y-74621428D01*
X201520476Y-74621428D02*
X201710952Y-74669047D01*
X201710952Y-74669047D02*
X201853809Y-74669047D01*
X201853809Y-74669047D02*
X202044285Y-74621428D01*
X202044285Y-74621428D02*
X202139523Y-74573809D01*
X202139523Y-74573809D02*
X202234761Y-74478571D01*
X202234761Y-74478571D02*
X202282380Y-74335714D01*
X202282380Y-74335714D02*
X202282380Y-74097619D01*
X201282380Y-75097619D02*
X202091904Y-75097619D01*
X202091904Y-75097619D02*
X202187142Y-75145238D01*
X202187142Y-75145238D02*
X202234761Y-75192857D01*
X202234761Y-75192857D02*
X202282380Y-75288095D01*
X202282380Y-75288095D02*
X202282380Y-75478571D01*
X202282380Y-75478571D02*
X202234761Y-75573809D01*
X202234761Y-75573809D02*
X202187142Y-75621428D01*
X202187142Y-75621428D02*
X202091904Y-75669047D01*
X202091904Y-75669047D02*
X201282380Y-75669047D01*
X202282380Y-76621428D02*
X202282380Y-76145238D01*
X202282380Y-76145238D02*
X201282380Y-76145238D01*
X201758571Y-76954762D02*
X201758571Y-77288095D01*
X202282380Y-77430952D02*
X202282380Y-76954762D01*
X202282380Y-76954762D02*
X201282380Y-76954762D01*
X201282380Y-76954762D02*
X201282380Y-77430952D01*
X202282380Y-80230952D02*
X201806190Y-79897619D01*
X202282380Y-79659524D02*
X201282380Y-79659524D01*
X201282380Y-79659524D02*
X201282380Y-80040476D01*
X201282380Y-80040476D02*
X201330000Y-80135714D01*
X201330000Y-80135714D02*
X201377619Y-80183333D01*
X201377619Y-80183333D02*
X201472857Y-80230952D01*
X201472857Y-80230952D02*
X201615714Y-80230952D01*
X201615714Y-80230952D02*
X201710952Y-80183333D01*
X201710952Y-80183333D02*
X201758571Y-80135714D01*
X201758571Y-80135714D02*
X201806190Y-80040476D01*
X201806190Y-80040476D02*
X201806190Y-79659524D01*
X201758571Y-80659524D02*
X201758571Y-80992857D01*
X202282380Y-81135714D02*
X202282380Y-80659524D01*
X202282380Y-80659524D02*
X201282380Y-80659524D01*
X201282380Y-80659524D02*
X201282380Y-81135714D01*
X201282380Y-81421429D02*
X202282380Y-81754762D01*
X202282380Y-81754762D02*
X201282380Y-82088095D01*
X201377619Y-82973810D02*
X201330000Y-83021429D01*
X201330000Y-83021429D02*
X201282380Y-83116667D01*
X201282380Y-83116667D02*
X201282380Y-83354762D01*
X201282380Y-83354762D02*
X201330000Y-83450000D01*
X201330000Y-83450000D02*
X201377619Y-83497619D01*
X201377619Y-83497619D02*
X201472857Y-83545238D01*
X201472857Y-83545238D02*
X201568095Y-83545238D01*
X201568095Y-83545238D02*
X201710952Y-83497619D01*
X201710952Y-83497619D02*
X202282380Y-82926191D01*
X202282380Y-82926191D02*
X202282380Y-83545238D01*
X202187142Y-83973810D02*
X202234761Y-84021429D01*
X202234761Y-84021429D02*
X202282380Y-83973810D01*
X202282380Y-83973810D02*
X202234761Y-83926191D01*
X202234761Y-83926191D02*
X202187142Y-83973810D01*
X202187142Y-83973810D02*
X202282380Y-83973810D01*
X201282380Y-84640476D02*
X201282380Y-84735714D01*
X201282380Y-84735714D02*
X201330000Y-84830952D01*
X201330000Y-84830952D02*
X201377619Y-84878571D01*
X201377619Y-84878571D02*
X201472857Y-84926190D01*
X201472857Y-84926190D02*
X201663333Y-84973809D01*
X201663333Y-84973809D02*
X201901428Y-84973809D01*
X201901428Y-84973809D02*
X202091904Y-84926190D01*
X202091904Y-84926190D02*
X202187142Y-84878571D01*
X202187142Y-84878571D02*
X202234761Y-84830952D01*
X202234761Y-84830952D02*
X202282380Y-84735714D01*
X202282380Y-84735714D02*
X202282380Y-84640476D01*
X202282380Y-84640476D02*
X202234761Y-84545238D01*
X202234761Y-84545238D02*
X202187142Y-84497619D01*
X202187142Y-84497619D02*
X202091904Y-84450000D01*
X202091904Y-84450000D02*
X201901428Y-84402381D01*
X201901428Y-84402381D02*
X201663333Y-84402381D01*
X201663333Y-84402381D02*
X201472857Y-84450000D01*
X201472857Y-84450000D02*
X201377619Y-84497619D01*
X201377619Y-84497619D02*
X201330000Y-84545238D01*
X201330000Y-84545238D02*
X201282380Y-84640476D01*
D11*
X179782380Y-59988095D02*
X178782380Y-59988095D01*
X178782380Y-59988095D02*
X179496666Y-60321428D01*
X179496666Y-60321428D02*
X178782380Y-60654761D01*
X178782380Y-60654761D02*
X179782380Y-60654761D01*
X178782380Y-61321428D02*
X178782380Y-61511904D01*
X178782380Y-61511904D02*
X178830000Y-61607142D01*
X178830000Y-61607142D02*
X178925238Y-61702380D01*
X178925238Y-61702380D02*
X179115714Y-61749999D01*
X179115714Y-61749999D02*
X179449047Y-61749999D01*
X179449047Y-61749999D02*
X179639523Y-61702380D01*
X179639523Y-61702380D02*
X179734761Y-61607142D01*
X179734761Y-61607142D02*
X179782380Y-61511904D01*
X179782380Y-61511904D02*
X179782380Y-61321428D01*
X179782380Y-61321428D02*
X179734761Y-61226190D01*
X179734761Y-61226190D02*
X179639523Y-61130952D01*
X179639523Y-61130952D02*
X179449047Y-61083333D01*
X179449047Y-61083333D02*
X179115714Y-61083333D01*
X179115714Y-61083333D02*
X178925238Y-61130952D01*
X178925238Y-61130952D02*
X178830000Y-61226190D01*
X178830000Y-61226190D02*
X178782380Y-61321428D01*
X179734761Y-62130952D02*
X179782380Y-62273809D01*
X179782380Y-62273809D02*
X179782380Y-62511904D01*
X179782380Y-62511904D02*
X179734761Y-62607142D01*
X179734761Y-62607142D02*
X179687142Y-62654761D01*
X179687142Y-62654761D02*
X179591904Y-62702380D01*
X179591904Y-62702380D02*
X179496666Y-62702380D01*
X179496666Y-62702380D02*
X179401428Y-62654761D01*
X179401428Y-62654761D02*
X179353809Y-62607142D01*
X179353809Y-62607142D02*
X179306190Y-62511904D01*
X179306190Y-62511904D02*
X179258571Y-62321428D01*
X179258571Y-62321428D02*
X179210952Y-62226190D01*
X179210952Y-62226190D02*
X179163333Y-62178571D01*
X179163333Y-62178571D02*
X179068095Y-62130952D01*
X179068095Y-62130952D02*
X178972857Y-62130952D01*
X178972857Y-62130952D02*
X178877619Y-62178571D01*
X178877619Y-62178571D02*
X178830000Y-62226190D01*
X178830000Y-62226190D02*
X178782380Y-62321428D01*
X178782380Y-62321428D02*
X178782380Y-62559523D01*
X178782380Y-62559523D02*
X178830000Y-62702380D01*
X179782380Y-63130952D02*
X178782380Y-63130952D01*
D10*
X143162380Y-68488095D02*
X143971904Y-68488095D01*
X143971904Y-68488095D02*
X144067142Y-68535714D01*
X144067142Y-68535714D02*
X144114761Y-68583333D01*
X144114761Y-68583333D02*
X144162380Y-68678571D01*
X144162380Y-68678571D02*
X144162380Y-68869047D01*
X144162380Y-68869047D02*
X144114761Y-68964285D01*
X144114761Y-68964285D02*
X144067142Y-69011904D01*
X144067142Y-69011904D02*
X143971904Y-69059523D01*
X143971904Y-69059523D02*
X143162380Y-69059523D01*
X144162380Y-69535714D02*
X143162380Y-69535714D01*
X143162380Y-69535714D02*
X144162380Y-70107142D01*
X144162380Y-70107142D02*
X143162380Y-70107142D01*
X144162380Y-70583333D02*
X143162380Y-70583333D01*
X143162380Y-70916666D02*
X143162380Y-71488094D01*
X144162380Y-71202380D02*
X143162380Y-71202380D01*
X145782380Y-68488095D02*
X144782380Y-68488095D01*
X145782380Y-68964285D02*
X144782380Y-68964285D01*
X144782380Y-68964285D02*
X144782380Y-69202380D01*
X144782380Y-69202380D02*
X144830000Y-69345237D01*
X144830000Y-69345237D02*
X144925238Y-69440475D01*
X144925238Y-69440475D02*
X145020476Y-69488094D01*
X145020476Y-69488094D02*
X145210952Y-69535713D01*
X145210952Y-69535713D02*
X145353809Y-69535713D01*
X145353809Y-69535713D02*
X145544285Y-69488094D01*
X145544285Y-69488094D02*
X145639523Y-69440475D01*
X145639523Y-69440475D02*
X145734761Y-69345237D01*
X145734761Y-69345237D02*
X145782380Y-69202380D01*
X145782380Y-69202380D02*
X145782380Y-68964285D01*
X173412380Y-65345238D02*
X173412380Y-65916666D01*
X174412380Y-65630952D02*
X173412380Y-65630952D01*
X174364761Y-66630952D02*
X174412380Y-66535714D01*
X174412380Y-66535714D02*
X174412380Y-66345238D01*
X174412380Y-66345238D02*
X174364761Y-66250000D01*
X174364761Y-66250000D02*
X174269523Y-66202381D01*
X174269523Y-66202381D02*
X173888571Y-66202381D01*
X173888571Y-66202381D02*
X173793333Y-66250000D01*
X173793333Y-66250000D02*
X173745714Y-66345238D01*
X173745714Y-66345238D02*
X173745714Y-66535714D01*
X173745714Y-66535714D02*
X173793333Y-66630952D01*
X173793333Y-66630952D02*
X173888571Y-66678571D01*
X173888571Y-66678571D02*
X173983809Y-66678571D01*
X173983809Y-66678571D02*
X174079047Y-66202381D01*
X174412380Y-67107143D02*
X173745714Y-67107143D01*
X173936190Y-67107143D02*
X173840952Y-67154762D01*
X173840952Y-67154762D02*
X173793333Y-67202381D01*
X173793333Y-67202381D02*
X173745714Y-67297619D01*
X173745714Y-67297619D02*
X173745714Y-67392857D01*
X174412380Y-67726191D02*
X173745714Y-67726191D01*
X173840952Y-67726191D02*
X173793333Y-67773810D01*
X173793333Y-67773810D02*
X173745714Y-67869048D01*
X173745714Y-67869048D02*
X173745714Y-68011905D01*
X173745714Y-68011905D02*
X173793333Y-68107143D01*
X173793333Y-68107143D02*
X173888571Y-68154762D01*
X173888571Y-68154762D02*
X174412380Y-68154762D01*
X173888571Y-68154762D02*
X173793333Y-68202381D01*
X173793333Y-68202381D02*
X173745714Y-68297619D01*
X173745714Y-68297619D02*
X173745714Y-68440476D01*
X173745714Y-68440476D02*
X173793333Y-68535715D01*
X173793333Y-68535715D02*
X173888571Y-68583334D01*
X173888571Y-68583334D02*
X174412380Y-68583334D01*
X174412380Y-69059524D02*
X173745714Y-69059524D01*
X173412380Y-69059524D02*
X173460000Y-69011905D01*
X173460000Y-69011905D02*
X173507619Y-69059524D01*
X173507619Y-69059524D02*
X173460000Y-69107143D01*
X173460000Y-69107143D02*
X173412380Y-69059524D01*
X173412380Y-69059524D02*
X173507619Y-69059524D01*
X173745714Y-69535714D02*
X174412380Y-69535714D01*
X173840952Y-69535714D02*
X173793333Y-69583333D01*
X173793333Y-69583333D02*
X173745714Y-69678571D01*
X173745714Y-69678571D02*
X173745714Y-69821428D01*
X173745714Y-69821428D02*
X173793333Y-69916666D01*
X173793333Y-69916666D02*
X173888571Y-69964285D01*
X173888571Y-69964285D02*
X174412380Y-69964285D01*
X174412380Y-70869047D02*
X173888571Y-70869047D01*
X173888571Y-70869047D02*
X173793333Y-70821428D01*
X173793333Y-70821428D02*
X173745714Y-70726190D01*
X173745714Y-70726190D02*
X173745714Y-70535714D01*
X173745714Y-70535714D02*
X173793333Y-70440476D01*
X174364761Y-70869047D02*
X174412380Y-70773809D01*
X174412380Y-70773809D02*
X174412380Y-70535714D01*
X174412380Y-70535714D02*
X174364761Y-70440476D01*
X174364761Y-70440476D02*
X174269523Y-70392857D01*
X174269523Y-70392857D02*
X174174285Y-70392857D01*
X174174285Y-70392857D02*
X174079047Y-70440476D01*
X174079047Y-70440476D02*
X174031428Y-70535714D01*
X174031428Y-70535714D02*
X174031428Y-70773809D01*
X174031428Y-70773809D02*
X173983809Y-70869047D01*
X174412380Y-71488095D02*
X174364761Y-71392857D01*
X174364761Y-71392857D02*
X174269523Y-71345238D01*
X174269523Y-71345238D02*
X173412380Y-71345238D01*
X176413333Y-65773809D02*
X176365714Y-65726190D01*
X176365714Y-65726190D02*
X176222857Y-65630952D01*
X176222857Y-65630952D02*
X176127619Y-65583333D01*
X176127619Y-65583333D02*
X175984761Y-65535714D01*
X175984761Y-65535714D02*
X175746666Y-65488095D01*
X175746666Y-65488095D02*
X175556190Y-65488095D01*
X175556190Y-65488095D02*
X175318095Y-65535714D01*
X175318095Y-65535714D02*
X175175238Y-65583333D01*
X175175238Y-65583333D02*
X175080000Y-65630952D01*
X175080000Y-65630952D02*
X174937142Y-65726190D01*
X174937142Y-65726190D02*
X174889523Y-65773809D01*
X176032380Y-66678571D02*
X176032380Y-66107143D01*
X176032380Y-66392857D02*
X175032380Y-66392857D01*
X175032380Y-66392857D02*
X175175238Y-66297619D01*
X175175238Y-66297619D02*
X175270476Y-66202381D01*
X175270476Y-66202381D02*
X175318095Y-66107143D01*
X175127619Y-67059524D02*
X175080000Y-67107143D01*
X175080000Y-67107143D02*
X175032380Y-67202381D01*
X175032380Y-67202381D02*
X175032380Y-67440476D01*
X175032380Y-67440476D02*
X175080000Y-67535714D01*
X175080000Y-67535714D02*
X175127619Y-67583333D01*
X175127619Y-67583333D02*
X175222857Y-67630952D01*
X175222857Y-67630952D02*
X175318095Y-67630952D01*
X175318095Y-67630952D02*
X175460952Y-67583333D01*
X175460952Y-67583333D02*
X176032380Y-67011905D01*
X176032380Y-67011905D02*
X176032380Y-67630952D01*
X175032380Y-68250000D02*
X175032380Y-68345238D01*
X175032380Y-68345238D02*
X175080000Y-68440476D01*
X175080000Y-68440476D02*
X175127619Y-68488095D01*
X175127619Y-68488095D02*
X175222857Y-68535714D01*
X175222857Y-68535714D02*
X175413333Y-68583333D01*
X175413333Y-68583333D02*
X175651428Y-68583333D01*
X175651428Y-68583333D02*
X175841904Y-68535714D01*
X175841904Y-68535714D02*
X175937142Y-68488095D01*
X175937142Y-68488095D02*
X175984761Y-68440476D01*
X175984761Y-68440476D02*
X176032380Y-68345238D01*
X176032380Y-68345238D02*
X176032380Y-68250000D01*
X176032380Y-68250000D02*
X175984761Y-68154762D01*
X175984761Y-68154762D02*
X175937142Y-68107143D01*
X175937142Y-68107143D02*
X175841904Y-68059524D01*
X175841904Y-68059524D02*
X175651428Y-68011905D01*
X175651428Y-68011905D02*
X175413333Y-68011905D01*
X175413333Y-68011905D02*
X175222857Y-68059524D01*
X175222857Y-68059524D02*
X175127619Y-68107143D01*
X175127619Y-68107143D02*
X175080000Y-68154762D01*
X175080000Y-68154762D02*
X175032380Y-68250000D01*
X176032380Y-69154762D02*
X175984761Y-69059524D01*
X175984761Y-69059524D02*
X175937142Y-69011905D01*
X175937142Y-69011905D02*
X175841904Y-68964286D01*
X175841904Y-68964286D02*
X175556190Y-68964286D01*
X175556190Y-68964286D02*
X175460952Y-69011905D01*
X175460952Y-69011905D02*
X175413333Y-69059524D01*
X175413333Y-69059524D02*
X175365714Y-69154762D01*
X175365714Y-69154762D02*
X175365714Y-69297619D01*
X175365714Y-69297619D02*
X175413333Y-69392857D01*
X175413333Y-69392857D02*
X175460952Y-69440476D01*
X175460952Y-69440476D02*
X175556190Y-69488095D01*
X175556190Y-69488095D02*
X175841904Y-69488095D01*
X175841904Y-69488095D02*
X175937142Y-69440476D01*
X175937142Y-69440476D02*
X175984761Y-69392857D01*
X175984761Y-69392857D02*
X176032380Y-69297619D01*
X176032380Y-69297619D02*
X176032380Y-69154762D01*
X176032380Y-69916667D02*
X175032380Y-69916667D01*
X176032380Y-70345238D02*
X175508571Y-70345238D01*
X175508571Y-70345238D02*
X175413333Y-70297619D01*
X175413333Y-70297619D02*
X175365714Y-70202381D01*
X175365714Y-70202381D02*
X175365714Y-70059524D01*
X175365714Y-70059524D02*
X175413333Y-69964286D01*
X175413333Y-69964286D02*
X175460952Y-69916667D01*
X176032380Y-70821429D02*
X175365714Y-70821429D01*
X175460952Y-70821429D02*
X175413333Y-70869048D01*
X175413333Y-70869048D02*
X175365714Y-70964286D01*
X175365714Y-70964286D02*
X175365714Y-71107143D01*
X175365714Y-71107143D02*
X175413333Y-71202381D01*
X175413333Y-71202381D02*
X175508571Y-71250000D01*
X175508571Y-71250000D02*
X176032380Y-71250000D01*
X175508571Y-71250000D02*
X175413333Y-71297619D01*
X175413333Y-71297619D02*
X175365714Y-71392857D01*
X175365714Y-71392857D02*
X175365714Y-71535714D01*
X175365714Y-71535714D02*
X175413333Y-71630953D01*
X175413333Y-71630953D02*
X175508571Y-71678572D01*
X175508571Y-71678572D02*
X176032380Y-71678572D01*
X176413333Y-72059524D02*
X176365714Y-72107143D01*
X176365714Y-72107143D02*
X176222857Y-72202381D01*
X176222857Y-72202381D02*
X176127619Y-72250000D01*
X176127619Y-72250000D02*
X175984761Y-72297619D01*
X175984761Y-72297619D02*
X175746666Y-72345238D01*
X175746666Y-72345238D02*
X175556190Y-72345238D01*
X175556190Y-72345238D02*
X175318095Y-72297619D01*
X175318095Y-72297619D02*
X175175238Y-72250000D01*
X175175238Y-72250000D02*
X175080000Y-72202381D01*
X175080000Y-72202381D02*
X174937142Y-72107143D01*
X174937142Y-72107143D02*
X174889523Y-72059524D01*
D11*
X176282380Y-60464285D02*
X176282380Y-59988095D01*
X176282380Y-59988095D02*
X176758571Y-59940476D01*
X176758571Y-59940476D02*
X176710952Y-59988095D01*
X176710952Y-59988095D02*
X176663333Y-60083333D01*
X176663333Y-60083333D02*
X176663333Y-60321428D01*
X176663333Y-60321428D02*
X176710952Y-60416666D01*
X176710952Y-60416666D02*
X176758571Y-60464285D01*
X176758571Y-60464285D02*
X176853809Y-60511904D01*
X176853809Y-60511904D02*
X177091904Y-60511904D01*
X177091904Y-60511904D02*
X177187142Y-60464285D01*
X177187142Y-60464285D02*
X177234761Y-60416666D01*
X177234761Y-60416666D02*
X177282380Y-60321428D01*
X177282380Y-60321428D02*
X177282380Y-60083333D01*
X177282380Y-60083333D02*
X177234761Y-59988095D01*
X177234761Y-59988095D02*
X177187142Y-59940476D01*
X176282380Y-60797619D02*
X177282380Y-61130952D01*
X177282380Y-61130952D02*
X176282380Y-61464285D01*
X181330000Y-60511904D02*
X181282380Y-60416666D01*
X181282380Y-60416666D02*
X181282380Y-60273809D01*
X181282380Y-60273809D02*
X181330000Y-60130952D01*
X181330000Y-60130952D02*
X181425238Y-60035714D01*
X181425238Y-60035714D02*
X181520476Y-59988095D01*
X181520476Y-59988095D02*
X181710952Y-59940476D01*
X181710952Y-59940476D02*
X181853809Y-59940476D01*
X181853809Y-59940476D02*
X182044285Y-59988095D01*
X182044285Y-59988095D02*
X182139523Y-60035714D01*
X182139523Y-60035714D02*
X182234761Y-60130952D01*
X182234761Y-60130952D02*
X182282380Y-60273809D01*
X182282380Y-60273809D02*
X182282380Y-60369047D01*
X182282380Y-60369047D02*
X182234761Y-60511904D01*
X182234761Y-60511904D02*
X182187142Y-60559523D01*
X182187142Y-60559523D02*
X181853809Y-60559523D01*
X181853809Y-60559523D02*
X181853809Y-60369047D01*
X182282380Y-60988095D02*
X181282380Y-60988095D01*
X181282380Y-60988095D02*
X182282380Y-61559523D01*
X182282380Y-61559523D02*
X181282380Y-61559523D01*
X182282380Y-62035714D02*
X181282380Y-62035714D01*
X181282380Y-62035714D02*
X181282380Y-62273809D01*
X181282380Y-62273809D02*
X181330000Y-62416666D01*
X181330000Y-62416666D02*
X181425238Y-62511904D01*
X181425238Y-62511904D02*
X181520476Y-62559523D01*
X181520476Y-62559523D02*
X181710952Y-62607142D01*
X181710952Y-62607142D02*
X181853809Y-62607142D01*
X181853809Y-62607142D02*
X182044285Y-62559523D01*
X182044285Y-62559523D02*
X182139523Y-62511904D01*
X182139523Y-62511904D02*
X182234761Y-62416666D01*
X182234761Y-62416666D02*
X182282380Y-62273809D01*
X182282380Y-62273809D02*
X182282380Y-62035714D01*
D12*
X177873571Y-79242857D02*
X177873571Y-78385714D01*
X177873571Y-78814285D02*
X176373571Y-78814285D01*
X176373571Y-78814285D02*
X176587857Y-78671428D01*
X176587857Y-78671428D02*
X176730714Y-78528571D01*
X176730714Y-78528571D02*
X176802142Y-78385714D01*
D10*
X168032380Y-59738095D02*
X167032380Y-59738095D01*
X167032380Y-59738095D02*
X167032380Y-59976190D01*
X167032380Y-59976190D02*
X167080000Y-60119047D01*
X167080000Y-60119047D02*
X167175238Y-60214285D01*
X167175238Y-60214285D02*
X167270476Y-60261904D01*
X167270476Y-60261904D02*
X167460952Y-60309523D01*
X167460952Y-60309523D02*
X167603809Y-60309523D01*
X167603809Y-60309523D02*
X167794285Y-60261904D01*
X167794285Y-60261904D02*
X167889523Y-60214285D01*
X167889523Y-60214285D02*
X167984761Y-60119047D01*
X167984761Y-60119047D02*
X168032380Y-59976190D01*
X168032380Y-59976190D02*
X168032380Y-59738095D01*
X168032380Y-60738095D02*
X167032380Y-60738095D01*
X167746666Y-61166666D02*
X167746666Y-61642856D01*
X168032380Y-61071428D02*
X167032380Y-61404761D01*
X167032380Y-61404761D02*
X168032380Y-61738094D01*
X167080000Y-62595237D02*
X167032380Y-62499999D01*
X167032380Y-62499999D02*
X167032380Y-62357142D01*
X167032380Y-62357142D02*
X167080000Y-62214285D01*
X167080000Y-62214285D02*
X167175238Y-62119047D01*
X167175238Y-62119047D02*
X167270476Y-62071428D01*
X167270476Y-62071428D02*
X167460952Y-62023809D01*
X167460952Y-62023809D02*
X167603809Y-62023809D01*
X167603809Y-62023809D02*
X167794285Y-62071428D01*
X167794285Y-62071428D02*
X167889523Y-62119047D01*
X167889523Y-62119047D02*
X167984761Y-62214285D01*
X167984761Y-62214285D02*
X168032380Y-62357142D01*
X168032380Y-62357142D02*
X168032380Y-62452380D01*
X168032380Y-62452380D02*
X167984761Y-62595237D01*
X167984761Y-62595237D02*
X167937142Y-62642856D01*
X167937142Y-62642856D02*
X167603809Y-62642856D01*
X167603809Y-62642856D02*
X167603809Y-62452380D01*
D12*
X176373571Y-74044285D02*
X176373571Y-74972857D01*
X176373571Y-74972857D02*
X176945000Y-74472857D01*
X176945000Y-74472857D02*
X176945000Y-74687142D01*
X176945000Y-74687142D02*
X177016428Y-74830000D01*
X177016428Y-74830000D02*
X177087857Y-74901428D01*
X177087857Y-74901428D02*
X177230714Y-74972857D01*
X177230714Y-74972857D02*
X177587857Y-74972857D01*
X177587857Y-74972857D02*
X177730714Y-74901428D01*
X177730714Y-74901428D02*
X177802142Y-74830000D01*
X177802142Y-74830000D02*
X177873571Y-74687142D01*
X177873571Y-74687142D02*
X177873571Y-74258571D01*
X177873571Y-74258571D02*
X177802142Y-74115714D01*
X177802142Y-74115714D02*
X177730714Y-74044285D01*
D10*
X143638571Y-73821428D02*
X143686190Y-73964285D01*
X143686190Y-73964285D02*
X143733809Y-74011904D01*
X143733809Y-74011904D02*
X143829047Y-74059523D01*
X143829047Y-74059523D02*
X143971904Y-74059523D01*
X143971904Y-74059523D02*
X144067142Y-74011904D01*
X144067142Y-74011904D02*
X144114761Y-73964285D01*
X144114761Y-73964285D02*
X144162380Y-73869047D01*
X144162380Y-73869047D02*
X144162380Y-73488095D01*
X144162380Y-73488095D02*
X143162380Y-73488095D01*
X143162380Y-73488095D02*
X143162380Y-73821428D01*
X143162380Y-73821428D02*
X143210000Y-73916666D01*
X143210000Y-73916666D02*
X143257619Y-73964285D01*
X143257619Y-73964285D02*
X143352857Y-74011904D01*
X143352857Y-74011904D02*
X143448095Y-74011904D01*
X143448095Y-74011904D02*
X143543333Y-73964285D01*
X143543333Y-73964285D02*
X143590952Y-73916666D01*
X143590952Y-73916666D02*
X143638571Y-73821428D01*
X143638571Y-73821428D02*
X143638571Y-73488095D01*
X143162380Y-74488095D02*
X143971904Y-74488095D01*
X143971904Y-74488095D02*
X144067142Y-74535714D01*
X144067142Y-74535714D02*
X144114761Y-74583333D01*
X144114761Y-74583333D02*
X144162380Y-74678571D01*
X144162380Y-74678571D02*
X144162380Y-74869047D01*
X144162380Y-74869047D02*
X144114761Y-74964285D01*
X144114761Y-74964285D02*
X144067142Y-75011904D01*
X144067142Y-75011904D02*
X143971904Y-75059523D01*
X143971904Y-75059523D02*
X143162380Y-75059523D01*
X144114761Y-75488095D02*
X144162380Y-75630952D01*
X144162380Y-75630952D02*
X144162380Y-75869047D01*
X144162380Y-75869047D02*
X144114761Y-75964285D01*
X144114761Y-75964285D02*
X144067142Y-76011904D01*
X144067142Y-76011904D02*
X143971904Y-76059523D01*
X143971904Y-76059523D02*
X143876666Y-76059523D01*
X143876666Y-76059523D02*
X143781428Y-76011904D01*
X143781428Y-76011904D02*
X143733809Y-75964285D01*
X143733809Y-75964285D02*
X143686190Y-75869047D01*
X143686190Y-75869047D02*
X143638571Y-75678571D01*
X143638571Y-75678571D02*
X143590952Y-75583333D01*
X143590952Y-75583333D02*
X143543333Y-75535714D01*
X143543333Y-75535714D02*
X143448095Y-75488095D01*
X143448095Y-75488095D02*
X143352857Y-75488095D01*
X143352857Y-75488095D02*
X143257619Y-75535714D01*
X143257619Y-75535714D02*
X143210000Y-75583333D01*
X143210000Y-75583333D02*
X143162380Y-75678571D01*
X143162380Y-75678571D02*
X143162380Y-75916666D01*
X143162380Y-75916666D02*
X143210000Y-76059523D01*
X145734761Y-73440476D02*
X145782380Y-73583333D01*
X145782380Y-73583333D02*
X145782380Y-73821428D01*
X145782380Y-73821428D02*
X145734761Y-73916666D01*
X145734761Y-73916666D02*
X145687142Y-73964285D01*
X145687142Y-73964285D02*
X145591904Y-74011904D01*
X145591904Y-74011904D02*
X145496666Y-74011904D01*
X145496666Y-74011904D02*
X145401428Y-73964285D01*
X145401428Y-73964285D02*
X145353809Y-73916666D01*
X145353809Y-73916666D02*
X145306190Y-73821428D01*
X145306190Y-73821428D02*
X145258571Y-73630952D01*
X145258571Y-73630952D02*
X145210952Y-73535714D01*
X145210952Y-73535714D02*
X145163333Y-73488095D01*
X145163333Y-73488095D02*
X145068095Y-73440476D01*
X145068095Y-73440476D02*
X144972857Y-73440476D01*
X144972857Y-73440476D02*
X144877619Y-73488095D01*
X144877619Y-73488095D02*
X144830000Y-73535714D01*
X144830000Y-73535714D02*
X144782380Y-73630952D01*
X144782380Y-73630952D02*
X144782380Y-73869047D01*
X144782380Y-73869047D02*
X144830000Y-74011904D01*
X145782380Y-74440476D02*
X144782380Y-74440476D01*
X144782380Y-74440476D02*
X144782380Y-74821428D01*
X144782380Y-74821428D02*
X144830000Y-74916666D01*
X144830000Y-74916666D02*
X144877619Y-74964285D01*
X144877619Y-74964285D02*
X144972857Y-75011904D01*
X144972857Y-75011904D02*
X145115714Y-75011904D01*
X145115714Y-75011904D02*
X145210952Y-74964285D01*
X145210952Y-74964285D02*
X145258571Y-74916666D01*
X145258571Y-74916666D02*
X145306190Y-74821428D01*
X145306190Y-74821428D02*
X145306190Y-74440476D01*
X145258571Y-75440476D02*
X145258571Y-75773809D01*
X145782380Y-75916666D02*
X145782380Y-75440476D01*
X145782380Y-75440476D02*
X144782380Y-75440476D01*
X144782380Y-75440476D02*
X144782380Y-75916666D01*
X145258571Y-76345238D02*
X145258571Y-76678571D01*
X145782380Y-76821428D02*
X145782380Y-76345238D01*
X145782380Y-76345238D02*
X144782380Y-76345238D01*
X144782380Y-76345238D02*
X144782380Y-76821428D01*
X145782380Y-77250000D02*
X144782380Y-77250000D01*
X144782380Y-77250000D02*
X144782380Y-77488095D01*
X144782380Y-77488095D02*
X144830000Y-77630952D01*
X144830000Y-77630952D02*
X144925238Y-77726190D01*
X144925238Y-77726190D02*
X145020476Y-77773809D01*
X145020476Y-77773809D02*
X145210952Y-77821428D01*
X145210952Y-77821428D02*
X145353809Y-77821428D01*
X145353809Y-77821428D02*
X145544285Y-77773809D01*
X145544285Y-77773809D02*
X145639523Y-77726190D01*
X145639523Y-77726190D02*
X145734761Y-77630952D01*
X145734761Y-77630952D02*
X145782380Y-77488095D01*
X145782380Y-77488095D02*
X145782380Y-77250000D01*
X192156857Y-77664285D02*
X192156857Y-76978571D01*
X192156857Y-77321428D02*
X190956857Y-77321428D01*
X190956857Y-77321428D02*
X191128285Y-77207142D01*
X191128285Y-77207142D02*
X191242571Y-77092857D01*
X191242571Y-77092857D02*
X191299714Y-76978571D01*
X192042571Y-78178571D02*
X192099714Y-78235714D01*
X192099714Y-78235714D02*
X192156857Y-78178571D01*
X192156857Y-78178571D02*
X192099714Y-78121428D01*
X192099714Y-78121428D02*
X192042571Y-78178571D01*
X192042571Y-78178571D02*
X192156857Y-78178571D01*
X191414000Y-78178571D02*
X191471142Y-78235714D01*
X191471142Y-78235714D02*
X191528285Y-78178571D01*
X191528285Y-78178571D02*
X191471142Y-78121428D01*
X191471142Y-78121428D02*
X191414000Y-78178571D01*
X191414000Y-78178571D02*
X191528285Y-78178571D01*
X191528285Y-79150000D02*
X191585428Y-79321428D01*
X191585428Y-79321428D02*
X191642571Y-79378571D01*
X191642571Y-79378571D02*
X191756857Y-79435714D01*
X191756857Y-79435714D02*
X191928285Y-79435714D01*
X191928285Y-79435714D02*
X192042571Y-79378571D01*
X192042571Y-79378571D02*
X192099714Y-79321428D01*
X192099714Y-79321428D02*
X192156857Y-79207143D01*
X192156857Y-79207143D02*
X192156857Y-78750000D01*
X192156857Y-78750000D02*
X190956857Y-78750000D01*
X190956857Y-78750000D02*
X190956857Y-79150000D01*
X190956857Y-79150000D02*
X191014000Y-79264286D01*
X191014000Y-79264286D02*
X191071142Y-79321428D01*
X191071142Y-79321428D02*
X191185428Y-79378571D01*
X191185428Y-79378571D02*
X191299714Y-79378571D01*
X191299714Y-79378571D02*
X191414000Y-79321428D01*
X191414000Y-79321428D02*
X191471142Y-79264286D01*
X191471142Y-79264286D02*
X191528285Y-79150000D01*
X191528285Y-79150000D02*
X191528285Y-78750000D01*
X191814000Y-79892857D02*
X191814000Y-80464286D01*
X192156857Y-79778571D02*
X190956857Y-80178571D01*
X190956857Y-80178571D02*
X192156857Y-80578571D01*
X190956857Y-80807142D02*
X190956857Y-81492857D01*
X192156857Y-81149999D02*
X190956857Y-81149999D01*
X192614000Y-82235714D02*
X192556857Y-82178571D01*
X192556857Y-82178571D02*
X192385428Y-82064285D01*
X192385428Y-82064285D02*
X192271142Y-82007143D01*
X192271142Y-82007143D02*
X192099714Y-81950000D01*
X192099714Y-81950000D02*
X191814000Y-81892857D01*
X191814000Y-81892857D02*
X191585428Y-81892857D01*
X191585428Y-81892857D02*
X191299714Y-81950000D01*
X191299714Y-81950000D02*
X191128285Y-82007143D01*
X191128285Y-82007143D02*
X191014000Y-82064285D01*
X191014000Y-82064285D02*
X190842571Y-82178571D01*
X190842571Y-82178571D02*
X190785428Y-82235714D01*
X192156857Y-83321428D02*
X192156857Y-82635714D01*
X192156857Y-82978571D02*
X190956857Y-82978571D01*
X190956857Y-82978571D02*
X191128285Y-82864285D01*
X191128285Y-82864285D02*
X191242571Y-82750000D01*
X191242571Y-82750000D02*
X191299714Y-82635714D01*
X191071142Y-83778571D02*
X191014000Y-83835714D01*
X191014000Y-83835714D02*
X190956857Y-83950000D01*
X190956857Y-83950000D02*
X190956857Y-84235714D01*
X190956857Y-84235714D02*
X191014000Y-84350000D01*
X191014000Y-84350000D02*
X191071142Y-84407142D01*
X191071142Y-84407142D02*
X191185428Y-84464285D01*
X191185428Y-84464285D02*
X191299714Y-84464285D01*
X191299714Y-84464285D02*
X191471142Y-84407142D01*
X191471142Y-84407142D02*
X192156857Y-83721428D01*
X192156857Y-83721428D02*
X192156857Y-84464285D01*
X190956857Y-84807142D02*
X192156857Y-85207142D01*
X192156857Y-85207142D02*
X190956857Y-85607142D01*
X192614000Y-85892856D02*
X192556857Y-85949999D01*
X192556857Y-85949999D02*
X192385428Y-86064285D01*
X192385428Y-86064285D02*
X192271142Y-86121428D01*
X192271142Y-86121428D02*
X192099714Y-86178570D01*
X192099714Y-86178570D02*
X191814000Y-86235713D01*
X191814000Y-86235713D02*
X191585428Y-86235713D01*
X191585428Y-86235713D02*
X191299714Y-86178570D01*
X191299714Y-86178570D02*
X191128285Y-86121428D01*
X191128285Y-86121428D02*
X191014000Y-86064285D01*
X191014000Y-86064285D02*
X190842571Y-85949999D01*
X190842571Y-85949999D02*
X190785428Y-85892856D01*
X193015142Y-76978571D02*
X192958000Y-77035714D01*
X192958000Y-77035714D02*
X192900857Y-77150000D01*
X192900857Y-77150000D02*
X192900857Y-77435714D01*
X192900857Y-77435714D02*
X192958000Y-77550000D01*
X192958000Y-77550000D02*
X193015142Y-77607142D01*
X193015142Y-77607142D02*
X193129428Y-77664285D01*
X193129428Y-77664285D02*
X193243714Y-77664285D01*
X193243714Y-77664285D02*
X193415142Y-77607142D01*
X193415142Y-77607142D02*
X194100857Y-76921428D01*
X194100857Y-76921428D02*
X194100857Y-77664285D01*
X193986571Y-78178571D02*
X194043714Y-78235714D01*
X194043714Y-78235714D02*
X194100857Y-78178571D01*
X194100857Y-78178571D02*
X194043714Y-78121428D01*
X194043714Y-78121428D02*
X193986571Y-78178571D01*
X193986571Y-78178571D02*
X194100857Y-78178571D01*
X193358000Y-78178571D02*
X193415142Y-78235714D01*
X193415142Y-78235714D02*
X193472285Y-78178571D01*
X193472285Y-78178571D02*
X193415142Y-78121428D01*
X193415142Y-78121428D02*
X193358000Y-78178571D01*
X193358000Y-78178571D02*
X193472285Y-78178571D01*
X192958000Y-79378571D02*
X192900857Y-79264286D01*
X192900857Y-79264286D02*
X192900857Y-79092857D01*
X192900857Y-79092857D02*
X192958000Y-78921428D01*
X192958000Y-78921428D02*
X193072285Y-78807143D01*
X193072285Y-78807143D02*
X193186571Y-78750000D01*
X193186571Y-78750000D02*
X193415142Y-78692857D01*
X193415142Y-78692857D02*
X193586571Y-78692857D01*
X193586571Y-78692857D02*
X193815142Y-78750000D01*
X193815142Y-78750000D02*
X193929428Y-78807143D01*
X193929428Y-78807143D02*
X194043714Y-78921428D01*
X194043714Y-78921428D02*
X194100857Y-79092857D01*
X194100857Y-79092857D02*
X194100857Y-79207143D01*
X194100857Y-79207143D02*
X194043714Y-79378571D01*
X194043714Y-79378571D02*
X193986571Y-79435714D01*
X193986571Y-79435714D02*
X193586571Y-79435714D01*
X193586571Y-79435714D02*
X193586571Y-79207143D01*
X194100857Y-79950000D02*
X192900857Y-79950000D01*
X192900857Y-79950000D02*
X194100857Y-80635714D01*
X194100857Y-80635714D02*
X192900857Y-80635714D01*
X194100857Y-81207143D02*
X192900857Y-81207143D01*
X192900857Y-81207143D02*
X192900857Y-81492857D01*
X192900857Y-81492857D02*
X192958000Y-81664286D01*
X192958000Y-81664286D02*
X193072285Y-81778571D01*
X193072285Y-81778571D02*
X193186571Y-81835714D01*
X193186571Y-81835714D02*
X193415142Y-81892857D01*
X193415142Y-81892857D02*
X193586571Y-81892857D01*
X193586571Y-81892857D02*
X193815142Y-81835714D01*
X193815142Y-81835714D02*
X193929428Y-81778571D01*
X193929428Y-81778571D02*
X194043714Y-81664286D01*
X194043714Y-81664286D02*
X194100857Y-81492857D01*
X194100857Y-81492857D02*
X194100857Y-81207143D01*
X194844857Y-76921428D02*
X194844857Y-77664285D01*
X194844857Y-77664285D02*
X195302000Y-77264285D01*
X195302000Y-77264285D02*
X195302000Y-77435714D01*
X195302000Y-77435714D02*
X195359142Y-77550000D01*
X195359142Y-77550000D02*
X195416285Y-77607142D01*
X195416285Y-77607142D02*
X195530571Y-77664285D01*
X195530571Y-77664285D02*
X195816285Y-77664285D01*
X195816285Y-77664285D02*
X195930571Y-77607142D01*
X195930571Y-77607142D02*
X195987714Y-77550000D01*
X195987714Y-77550000D02*
X196044857Y-77435714D01*
X196044857Y-77435714D02*
X196044857Y-77092857D01*
X196044857Y-77092857D02*
X195987714Y-76978571D01*
X195987714Y-76978571D02*
X195930571Y-76921428D01*
X195930571Y-78178571D02*
X195987714Y-78235714D01*
X195987714Y-78235714D02*
X196044857Y-78178571D01*
X196044857Y-78178571D02*
X195987714Y-78121428D01*
X195987714Y-78121428D02*
X195930571Y-78178571D01*
X195930571Y-78178571D02*
X196044857Y-78178571D01*
X195302000Y-78178571D02*
X195359142Y-78235714D01*
X195359142Y-78235714D02*
X195416285Y-78178571D01*
X195416285Y-78178571D02*
X195359142Y-78121428D01*
X195359142Y-78121428D02*
X195302000Y-78178571D01*
X195302000Y-78178571D02*
X195416285Y-78178571D01*
X195930571Y-79435714D02*
X195987714Y-79378571D01*
X195987714Y-79378571D02*
X196044857Y-79207143D01*
X196044857Y-79207143D02*
X196044857Y-79092857D01*
X196044857Y-79092857D02*
X195987714Y-78921428D01*
X195987714Y-78921428D02*
X195873428Y-78807143D01*
X195873428Y-78807143D02*
X195759142Y-78750000D01*
X195759142Y-78750000D02*
X195530571Y-78692857D01*
X195530571Y-78692857D02*
X195359142Y-78692857D01*
X195359142Y-78692857D02*
X195130571Y-78750000D01*
X195130571Y-78750000D02*
X195016285Y-78807143D01*
X195016285Y-78807143D02*
X194902000Y-78921428D01*
X194902000Y-78921428D02*
X194844857Y-79092857D01*
X194844857Y-79092857D02*
X194844857Y-79207143D01*
X194844857Y-79207143D02*
X194902000Y-79378571D01*
X194902000Y-79378571D02*
X194959142Y-79435714D01*
X195702000Y-79892857D02*
X195702000Y-80464286D01*
X196044857Y-79778571D02*
X194844857Y-80178571D01*
X194844857Y-80178571D02*
X196044857Y-80578571D01*
X196044857Y-80978571D02*
X194844857Y-80978571D01*
X194844857Y-80978571D02*
X196044857Y-81664285D01*
X196044857Y-81664285D02*
X194844857Y-81664285D01*
X195587714Y-82235714D02*
X195587714Y-83150000D01*
X196044857Y-84292856D02*
X196044857Y-83721428D01*
X196044857Y-83721428D02*
X194844857Y-83721428D01*
X196044857Y-84864285D02*
X195987714Y-84750000D01*
X195987714Y-84750000D02*
X195930571Y-84692857D01*
X195930571Y-84692857D02*
X195816285Y-84635714D01*
X195816285Y-84635714D02*
X195473428Y-84635714D01*
X195473428Y-84635714D02*
X195359142Y-84692857D01*
X195359142Y-84692857D02*
X195302000Y-84750000D01*
X195302000Y-84750000D02*
X195244857Y-84864285D01*
X195244857Y-84864285D02*
X195244857Y-85035714D01*
X195244857Y-85035714D02*
X195302000Y-85150000D01*
X195302000Y-85150000D02*
X195359142Y-85207143D01*
X195359142Y-85207143D02*
X195473428Y-85264285D01*
X195473428Y-85264285D02*
X195816285Y-85264285D01*
X195816285Y-85264285D02*
X195930571Y-85207143D01*
X195930571Y-85207143D02*
X195987714Y-85150000D01*
X195987714Y-85150000D02*
X196044857Y-85035714D01*
X196044857Y-85035714D02*
X196044857Y-84864285D01*
X197188857Y-77550000D02*
X197988857Y-77550000D01*
X196731714Y-77264285D02*
X197588857Y-76978571D01*
X197588857Y-76978571D02*
X197588857Y-77721428D01*
X197874571Y-78178571D02*
X197931714Y-78235714D01*
X197931714Y-78235714D02*
X197988857Y-78178571D01*
X197988857Y-78178571D02*
X197931714Y-78121428D01*
X197931714Y-78121428D02*
X197874571Y-78178571D01*
X197874571Y-78178571D02*
X197988857Y-78178571D01*
X197246000Y-78178571D02*
X197303142Y-78235714D01*
X197303142Y-78235714D02*
X197360285Y-78178571D01*
X197360285Y-78178571D02*
X197303142Y-78121428D01*
X197303142Y-78121428D02*
X197246000Y-78178571D01*
X197246000Y-78178571D02*
X197360285Y-78178571D01*
X197874571Y-79435714D02*
X197931714Y-79378571D01*
X197931714Y-79378571D02*
X197988857Y-79207143D01*
X197988857Y-79207143D02*
X197988857Y-79092857D01*
X197988857Y-79092857D02*
X197931714Y-78921428D01*
X197931714Y-78921428D02*
X197817428Y-78807143D01*
X197817428Y-78807143D02*
X197703142Y-78750000D01*
X197703142Y-78750000D02*
X197474571Y-78692857D01*
X197474571Y-78692857D02*
X197303142Y-78692857D01*
X197303142Y-78692857D02*
X197074571Y-78750000D01*
X197074571Y-78750000D02*
X196960285Y-78807143D01*
X196960285Y-78807143D02*
X196846000Y-78921428D01*
X196846000Y-78921428D02*
X196788857Y-79092857D01*
X196788857Y-79092857D02*
X196788857Y-79207143D01*
X196788857Y-79207143D02*
X196846000Y-79378571D01*
X196846000Y-79378571D02*
X196903142Y-79435714D01*
X197646000Y-79892857D02*
X197646000Y-80464286D01*
X197988857Y-79778571D02*
X196788857Y-80178571D01*
X196788857Y-80178571D02*
X197988857Y-80578571D01*
X197988857Y-80978571D02*
X196788857Y-80978571D01*
X196788857Y-80978571D02*
X197988857Y-81664285D01*
X197988857Y-81664285D02*
X196788857Y-81664285D01*
X197531714Y-82235714D02*
X197531714Y-83150000D01*
X197988857Y-83721428D02*
X196788857Y-83721428D01*
X197360285Y-83721428D02*
X197360285Y-84407142D01*
X197988857Y-84407142D02*
X196788857Y-84407142D01*
X197988857Y-84978571D02*
X197188857Y-84978571D01*
X196788857Y-84978571D02*
X196846000Y-84921428D01*
X196846000Y-84921428D02*
X196903142Y-84978571D01*
X196903142Y-84978571D02*
X196846000Y-85035714D01*
X196846000Y-85035714D02*
X196788857Y-84978571D01*
X196788857Y-84978571D02*
X196903142Y-84978571D01*
D12*
X188616428Y-78385714D02*
X188545000Y-78457142D01*
X188545000Y-78457142D02*
X188473571Y-78600000D01*
X188473571Y-78600000D02*
X188473571Y-78957142D01*
X188473571Y-78957142D02*
X188545000Y-79100000D01*
X188545000Y-79100000D02*
X188616428Y-79171428D01*
X188616428Y-79171428D02*
X188759285Y-79242857D01*
X188759285Y-79242857D02*
X188902142Y-79242857D01*
X188902142Y-79242857D02*
X189116428Y-79171428D01*
X189116428Y-79171428D02*
X189973571Y-78314285D01*
X189973571Y-78314285D02*
X189973571Y-79242857D01*
D10*
X174960952Y-58535714D02*
X175341904Y-58535714D01*
X175389523Y-58583333D02*
X175532380Y-58773809D01*
X174913333Y-58583333D02*
X174770476Y-58773809D01*
X174865714Y-58583333D02*
X175437142Y-58583333D01*
X175437142Y-58630952D02*
X174865714Y-58630952D01*
X174818095Y-58678571D02*
X175484761Y-58678571D01*
X175484761Y-58726190D02*
X174818095Y-58726190D01*
X174770476Y-58773809D02*
X175532380Y-58773809D01*
X175532380Y-58821428D02*
X174770476Y-58821428D01*
X174770476Y-58869047D02*
X175532380Y-58869047D01*
X175532380Y-58916666D02*
X174770476Y-58916666D01*
X175532380Y-58964285D02*
X175389523Y-59154761D01*
X174770476Y-58964285D02*
X175532380Y-58964285D01*
X174770476Y-58964285D02*
X174913333Y-59154761D01*
X175484761Y-59011904D02*
X174818095Y-59011904D01*
X174818095Y-59059523D02*
X175484761Y-59059523D01*
X175437142Y-59107142D02*
X174865714Y-59107142D01*
X174865714Y-59154761D02*
X175437142Y-59154761D01*
X175341904Y-59202380D02*
X174960952Y-59202380D01*
X174770476Y-58773809D02*
X174770476Y-58964285D01*
X174770476Y-58964285D02*
X174865714Y-59154761D01*
X174865714Y-59154761D02*
X175056190Y-59250000D01*
X175056190Y-59250000D02*
X175246666Y-59250000D01*
X175246666Y-59250000D02*
X175437142Y-59154761D01*
X175437142Y-59154761D02*
X175532380Y-58964285D01*
X175532380Y-58964285D02*
X175532380Y-58773809D01*
X175532380Y-58773809D02*
X175437142Y-58583333D01*
X175437142Y-58583333D02*
X175246666Y-58488095D01*
X175246666Y-58488095D02*
X175056190Y-58488095D01*
X175056190Y-58488095D02*
X174865714Y-58583333D01*
X174865714Y-58583333D02*
X174770476Y-58773809D01*
D12*
X188973571Y-74700000D02*
X189973571Y-74700000D01*
X188402142Y-74342857D02*
X189473571Y-73985714D01*
X189473571Y-73985714D02*
X189473571Y-74914285D01*
D13*
%TO.C,JP2*%
X150877619Y-76440476D02*
X150830000Y-76488095D01*
X150830000Y-76488095D02*
X150782380Y-76583333D01*
X150782380Y-76583333D02*
X150782380Y-76821428D01*
X150782380Y-76821428D02*
X150830000Y-76916666D01*
X150830000Y-76916666D02*
X150877619Y-76964285D01*
X150877619Y-76964285D02*
X150972857Y-77011904D01*
X150972857Y-77011904D02*
X151068095Y-77011904D01*
X151068095Y-77011904D02*
X151210952Y-76964285D01*
X151210952Y-76964285D02*
X151782380Y-76392857D01*
X151782380Y-76392857D02*
X151782380Y-77011904D01*
X149032380Y-77011904D02*
X149032380Y-76440476D01*
X149032380Y-76726190D02*
X148032380Y-76726190D01*
X148032380Y-76726190D02*
X148175238Y-76630952D01*
X148175238Y-76630952D02*
X148270476Y-76535714D01*
X148270476Y-76535714D02*
X148318095Y-76440476D01*
D14*
%TO.C,RESET*%
X143117380Y-61547618D02*
X142641190Y-61214285D01*
X143117380Y-60976190D02*
X142117380Y-60976190D01*
X142117380Y-60976190D02*
X142117380Y-61357142D01*
X142117380Y-61357142D02*
X142165000Y-61452380D01*
X142165000Y-61452380D02*
X142212619Y-61499999D01*
X142212619Y-61499999D02*
X142307857Y-61547618D01*
X142307857Y-61547618D02*
X142450714Y-61547618D01*
X142450714Y-61547618D02*
X142545952Y-61499999D01*
X142545952Y-61499999D02*
X142593571Y-61452380D01*
X142593571Y-61452380D02*
X142641190Y-61357142D01*
X142641190Y-61357142D02*
X142641190Y-60976190D01*
X142593571Y-61976190D02*
X142593571Y-62309523D01*
X143117380Y-62452380D02*
X143117380Y-61976190D01*
X143117380Y-61976190D02*
X142117380Y-61976190D01*
X142117380Y-61976190D02*
X142117380Y-62452380D01*
X143069761Y-62833333D02*
X143117380Y-62976190D01*
X143117380Y-62976190D02*
X143117380Y-63214285D01*
X143117380Y-63214285D02*
X143069761Y-63309523D01*
X143069761Y-63309523D02*
X143022142Y-63357142D01*
X143022142Y-63357142D02*
X142926904Y-63404761D01*
X142926904Y-63404761D02*
X142831666Y-63404761D01*
X142831666Y-63404761D02*
X142736428Y-63357142D01*
X142736428Y-63357142D02*
X142688809Y-63309523D01*
X142688809Y-63309523D02*
X142641190Y-63214285D01*
X142641190Y-63214285D02*
X142593571Y-63023809D01*
X142593571Y-63023809D02*
X142545952Y-62928571D01*
X142545952Y-62928571D02*
X142498333Y-62880952D01*
X142498333Y-62880952D02*
X142403095Y-62833333D01*
X142403095Y-62833333D02*
X142307857Y-62833333D01*
X142307857Y-62833333D02*
X142212619Y-62880952D01*
X142212619Y-62880952D02*
X142165000Y-62928571D01*
X142165000Y-62928571D02*
X142117380Y-63023809D01*
X142117380Y-63023809D02*
X142117380Y-63261904D01*
X142117380Y-63261904D02*
X142165000Y-63404761D01*
X142593571Y-63833333D02*
X142593571Y-64166666D01*
X143117380Y-64309523D02*
X143117380Y-63833333D01*
X143117380Y-63833333D02*
X142117380Y-63833333D01*
X142117380Y-63833333D02*
X142117380Y-64309523D01*
X142117380Y-64595238D02*
X142117380Y-65166666D01*
X143117380Y-64880952D02*
X142117380Y-64880952D01*
D15*
%TO.C,JP3*%
X146420000Y-71105000D02*
X146420000Y-68445000D01*
X149020000Y-71105000D02*
X146420000Y-71105000D01*
X149020000Y-71105000D02*
X149020000Y-68445000D01*
X151620000Y-69775000D02*
X151620000Y-68445000D01*
X149020000Y-68445000D02*
X146420000Y-68445000D01*
X151620000Y-68445000D02*
X150290000Y-68445000D01*
D16*
%TO.C,JP2*%
X147380000Y-77300000D02*
X149780000Y-77300000D01*
X149780000Y-77300000D02*
X149780000Y-75500000D01*
X150180000Y-77300000D02*
X152580000Y-77300000D01*
X152580000Y-77300000D02*
X152580000Y-75500000D01*
X147380000Y-75500000D02*
X147380000Y-77300000D01*
X150180000Y-75500000D02*
X150180000Y-77300000D01*
D15*
%TO.C,JP1*%
X178050000Y-69350000D02*
X177450000Y-69350000D01*
X176750000Y-70050000D02*
X176750000Y-71450000D01*
X178750000Y-71450000D02*
X178750000Y-70050000D01*
X177450000Y-72150000D02*
X178050000Y-72150000D01*
X178750000Y-70050000D02*
G75*
G03*
X178050000Y-69350000I-699999J1D01*
G01*
X177450000Y-69350000D02*
G75*
G03*
X176750000Y-70050000I-1J-699999D01*
G01*
X178050000Y-72150000D02*
G75*
G03*
X178750000Y-71450000I0J700000D01*
G01*
X176750000Y-71450000D02*
G75*
G03*
X177450000Y-72150000I700000J0D01*
G01*
D17*
%TO.C,J2*%
X188200000Y-93770000D02*
X188200000Y-73830000D01*
X188200000Y-73830000D02*
X186976200Y-73830000D01*
X178200000Y-93770000D02*
X188200000Y-93770000D01*
X178200000Y-73830000D02*
X179823800Y-73830000D01*
X178200000Y-73830000D02*
X178200000Y-93770000D01*
X177903000Y-79870000D02*
X177203000Y-80270000D01*
X177203000Y-80270000D02*
X177203000Y-79470000D01*
X177203000Y-79470000D02*
X177903000Y-79870000D01*
D15*
%TO.C,D1*%
X168680000Y-63910000D02*
X168836000Y-63910000D01*
X166364000Y-63910000D02*
X166520000Y-63910000D01*
X168678608Y-67142334D02*
G75*
G03*
X168835515Y-63910001I-1078608J1672334D01*
G01*
X168679836Y-66511129D02*
G75*
G03*
X168679999Y-64429040I-1079836J1041129D01*
G01*
X166520001Y-64429040D02*
G75*
G03*
X166520164Y-66511129I1079999J-1040960D01*
G01*
X166364485Y-63910001D02*
G75*
G03*
X166521392Y-67142334I1235515J-1559999D01*
G01*
D17*
%TO.C,J3*%
X170300000Y-71074000D02*
X170300000Y-72344000D01*
X156965000Y-71709000D02*
X158235000Y-71709000D01*
X157600000Y-72344000D02*
X157600000Y-71074000D01*
X171700000Y-73000000D02*
X171700000Y-73902500D01*
X156200000Y-73000000D02*
X171700000Y-73000000D01*
X156200000Y-73902500D02*
X156200000Y-73000000D01*
X171700000Y-77197500D02*
X171700000Y-79150000D01*
X171700000Y-79100000D02*
X156200000Y-79100000D01*
X156200000Y-79100000D02*
X156200000Y-87352500D01*
X156200000Y-79250000D02*
X156200000Y-77197500D01*
X171700000Y-87352500D02*
X171700000Y-79100000D01*
X156200000Y-90647500D02*
X156200000Y-93800000D01*
X171700000Y-93800000D02*
X171700000Y-90647500D01*
X156200000Y-93800000D02*
X171700000Y-93800000D01*
%TO.C,G\u002A\u002A\u002A*%
G36*
X194631640Y-72647063D02*
G01*
X194658565Y-72691934D01*
X194699142Y-72763892D01*
X194747181Y-72852070D01*
X194790576Y-72932234D01*
X195057131Y-73392641D01*
X195332229Y-73812146D01*
X195620659Y-74197214D01*
X195927209Y-74554309D01*
X196256665Y-74889892D01*
X196510780Y-75132490D01*
X196514088Y-75286993D01*
X196517397Y-75441496D01*
X196426423Y-75373306D01*
X196060200Y-75078764D01*
X195641702Y-74690615D01*
X195237979Y-74259029D01*
X194851082Y-73786072D01*
X194811335Y-73733482D01*
X194732972Y-73626617D01*
X194649487Y-73509510D01*
X194565678Y-73389237D01*
X194486344Y-73272872D01*
X194416286Y-73167492D01*
X194360302Y-73080172D01*
X194323193Y-73017987D01*
X194309756Y-72988014D01*
X194312991Y-72978123D01*
X194339685Y-72937641D01*
X194386408Y-72878947D01*
X194444734Y-72811361D01*
X194506238Y-72744207D01*
X194562497Y-72686805D01*
X194605085Y-72648479D01*
X194625578Y-72638549D01*
X194631640Y-72647063D01*
G37*
G36*
X194948221Y-72269543D02*
G01*
X194975752Y-72317425D01*
X195014476Y-72393560D01*
X195059546Y-72488748D01*
X195061491Y-72492985D01*
X195113132Y-72600536D01*
X195151710Y-72668452D01*
X195180967Y-72702385D01*
X195204643Y-72707988D01*
X195230299Y-72700633D01*
X195304435Y-72682498D01*
X195375522Y-72668539D01*
X195428914Y-72661397D01*
X195449966Y-72663717D01*
X195449476Y-72667252D01*
X195440424Y-72705861D01*
X195422310Y-72775860D01*
X195398221Y-72865231D01*
X195346475Y-73054047D01*
X195513455Y-73328464D01*
X195588290Y-73447544D01*
X195729622Y-73657941D01*
X195884233Y-73873644D01*
X196040379Y-74078462D01*
X196186316Y-74256203D01*
X196309283Y-74398827D01*
X196412841Y-74280463D01*
X196516399Y-74162099D01*
X196516898Y-74557174D01*
X196516927Y-74659414D01*
X196516185Y-74777073D01*
X196513815Y-74856974D01*
X196509047Y-74905583D01*
X196501110Y-74929363D01*
X196489232Y-74934779D01*
X196472643Y-74928297D01*
X196459444Y-74918828D01*
X196412817Y-74877507D01*
X196343570Y-74811157D01*
X196258643Y-74726500D01*
X196164978Y-74630261D01*
X196143413Y-74607642D01*
X195867578Y-74294721D01*
X195596687Y-73945296D01*
X195338381Y-73570405D01*
X195100301Y-73181089D01*
X194890087Y-72788385D01*
X194738219Y-72482102D01*
X194830157Y-72369904D01*
X194872791Y-72319900D01*
X194915285Y-72275006D01*
X194937830Y-72257705D01*
X194948221Y-72269543D01*
G37*
G36*
X197643685Y-67551805D02*
G01*
X197740189Y-67557765D01*
X197805404Y-67576359D01*
X197845458Y-67614764D01*
X197866481Y-67680154D01*
X197874601Y-67779708D01*
X197875945Y-67920601D01*
X197875945Y-68182061D01*
X198544192Y-68182061D01*
X199212439Y-68182061D01*
X199274224Y-68243845D01*
X199280665Y-68250342D01*
X199306629Y-68280525D01*
X199322308Y-68313843D01*
X199329709Y-68361627D01*
X199330840Y-68435211D01*
X199327706Y-68545929D01*
X199327263Y-68558082D01*
X199318931Y-68686616D01*
X199305624Y-68774436D01*
X199287902Y-68817717D01*
X199277245Y-68824015D01*
X199240930Y-68832789D01*
X199177423Y-68839903D01*
X199082459Y-68845587D01*
X198951772Y-68850068D01*
X198781098Y-68853574D01*
X198566173Y-68856335D01*
X197875945Y-68863465D01*
X197875945Y-69112491D01*
X197875791Y-69183472D01*
X197871984Y-69297683D01*
X197857810Y-69374429D01*
X197826424Y-69421156D01*
X197770985Y-69445312D01*
X197684647Y-69454344D01*
X197560568Y-69455700D01*
X197472349Y-69455167D01*
X197387396Y-69451894D01*
X197333612Y-69444158D01*
X197301016Y-69430288D01*
X197279625Y-69408608D01*
X197269167Y-69370939D01*
X197260214Y-69291280D01*
X197252977Y-69176855D01*
X197247442Y-69034593D01*
X197243599Y-68871423D01*
X197241432Y-68694273D01*
X197240931Y-68510071D01*
X197242081Y-68325747D01*
X197244871Y-68148229D01*
X197249286Y-67984445D01*
X197255315Y-67841324D01*
X197262945Y-67725794D01*
X197272163Y-67644785D01*
X197282956Y-67605224D01*
X197303004Y-67581469D01*
X197331064Y-67565240D01*
X197376405Y-67556151D01*
X197449437Y-67552180D01*
X197560568Y-67551306D01*
X197643685Y-67551805D01*
G37*
G36*
X198490958Y-71505745D02*
G01*
X198699809Y-71506325D01*
X198868556Y-71507814D01*
X199001698Y-71510629D01*
X199103735Y-71515190D01*
X199179166Y-71521916D01*
X199232490Y-71531227D01*
X199268206Y-71543540D01*
X199290813Y-71559276D01*
X199304810Y-71578853D01*
X199314697Y-71602691D01*
X199323132Y-71633355D01*
X199333005Y-71724984D01*
X199330582Y-71832186D01*
X199317473Y-71939027D01*
X199295289Y-72029572D01*
X199265641Y-72087887D01*
X199239365Y-72092311D01*
X199172299Y-72097371D01*
X199072235Y-72102635D01*
X198946950Y-72107697D01*
X198804220Y-72112146D01*
X198353599Y-72124276D01*
X198819232Y-72485433D01*
X198909085Y-72555601D01*
X199032379Y-72653531D01*
X199139548Y-72740599D01*
X199224981Y-72812161D01*
X199283068Y-72863573D01*
X199308199Y-72890189D01*
X199309278Y-72892398D01*
X199320531Y-72940741D01*
X199328505Y-73020165D01*
X199331533Y-73114645D01*
X199331172Y-73157091D01*
X199325546Y-73247945D01*
X199311074Y-73308720D01*
X199285156Y-73352773D01*
X199238780Y-73410045D01*
X198288362Y-73410045D01*
X197337943Y-73410045D01*
X197291567Y-73352773D01*
X197278161Y-73333919D01*
X197258184Y-73285298D01*
X197248024Y-73214609D01*
X197245191Y-73108747D01*
X197245121Y-73066354D01*
X197246472Y-72985630D01*
X197254748Y-72925495D01*
X197275883Y-72882712D01*
X197315814Y-72854040D01*
X197380477Y-72836240D01*
X197475807Y-72826073D01*
X197607740Y-72820300D01*
X197782212Y-72815680D01*
X198250471Y-72803551D01*
X198069273Y-72665741D01*
X197991770Y-72606669D01*
X197832394Y-72484386D01*
X197683692Y-72369249D01*
X197550334Y-72264943D01*
X197436991Y-72175156D01*
X197348333Y-72103576D01*
X197289032Y-72053890D01*
X197263757Y-72029786D01*
X197260453Y-72023615D01*
X197248666Y-71968689D01*
X197243930Y-71884334D01*
X197245617Y-71785896D01*
X197253102Y-71688725D01*
X197265757Y-71608166D01*
X197282956Y-71559569D01*
X197320721Y-71505652D01*
X198272971Y-71505652D01*
X198490958Y-71505745D01*
G37*
G36*
X197347916Y-64397812D02*
G01*
X197388033Y-64411856D01*
X197464235Y-64445070D01*
X197570543Y-64494619D01*
X197700975Y-64557666D01*
X197849551Y-64631375D01*
X198010292Y-64712911D01*
X198625458Y-65028288D01*
X198918949Y-65028288D01*
X199017476Y-65028539D01*
X199111440Y-65030518D01*
X199174242Y-65035948D01*
X199215738Y-65046541D01*
X199245781Y-65064011D01*
X199274224Y-65090072D01*
X199281981Y-65097913D01*
X199307339Y-65127794D01*
X199322624Y-65161251D01*
X199329802Y-65209506D01*
X199330841Y-65283785D01*
X199327706Y-65395309D01*
X199327562Y-65399525D01*
X199322642Y-65514672D01*
X199312187Y-65596822D01*
X199289033Y-65651543D01*
X199246016Y-65684407D01*
X199175972Y-65700985D01*
X199071738Y-65706846D01*
X198926150Y-65707562D01*
X198627079Y-65707562D01*
X198012127Y-66022939D01*
X197986448Y-66036086D01*
X197827179Y-66116607D01*
X197680951Y-66188853D01*
X197553756Y-66249985D01*
X197451586Y-66297166D01*
X197380435Y-66327556D01*
X197346296Y-66338317D01*
X197318032Y-66334188D01*
X197283317Y-66307257D01*
X197260871Y-66250105D01*
X197248794Y-66156780D01*
X197245191Y-66021334D01*
X197245199Y-65995114D01*
X197246278Y-65898506D01*
X197251556Y-65835353D01*
X197264401Y-65793249D01*
X197288178Y-65759786D01*
X197326254Y-65722556D01*
X197375523Y-65685138D01*
X197459764Y-65632130D01*
X197564645Y-65572809D01*
X197678021Y-65514364D01*
X197687496Y-65509717D01*
X197789284Y-65458723D01*
X197872284Y-65415255D01*
X197928172Y-65383790D01*
X197948624Y-65368805D01*
X197943730Y-65364093D01*
X197905018Y-65340324D01*
X197834011Y-65301092D01*
X197738257Y-65250510D01*
X197625306Y-65192691D01*
X197567896Y-65163435D01*
X197442389Y-65096293D01*
X197354842Y-65043335D01*
X197300259Y-65001354D01*
X197273641Y-64967146D01*
X197269031Y-64954737D01*
X197256198Y-64886834D01*
X197248455Y-64792054D01*
X197245899Y-64685410D01*
X197248624Y-64581919D01*
X197256727Y-64496597D01*
X197270304Y-64444458D01*
X197294325Y-64417126D01*
X197345271Y-64397533D01*
X197347916Y-64397812D01*
G37*
G36*
X198135098Y-69517056D02*
G01*
X198299737Y-69519029D01*
X198452912Y-69522595D01*
X198586485Y-69527752D01*
X198692316Y-69534493D01*
X198762267Y-69542817D01*
X198924020Y-69586660D01*
X199068869Y-69663297D01*
X199179310Y-69772145D01*
X199258318Y-69916232D01*
X199308872Y-70098584D01*
X199316497Y-70168699D01*
X199320809Y-70275498D01*
X199321654Y-70404673D01*
X199319354Y-70544413D01*
X199314229Y-70682904D01*
X199306601Y-70808336D01*
X199296790Y-70908897D01*
X199285118Y-70972774D01*
X199216790Y-71129332D01*
X199112630Y-71257897D01*
X198976116Y-71351062D01*
X198834207Y-71420742D01*
X198089788Y-71428377D01*
X197892973Y-71430593D01*
X197706137Y-71432217D01*
X197559020Y-71431198D01*
X197446897Y-71425826D01*
X197365047Y-71414395D01*
X197308746Y-71395196D01*
X197273272Y-71366520D01*
X197253903Y-71326661D01*
X197245914Y-71273908D01*
X197244584Y-71206555D01*
X197245191Y-71122893D01*
X197244660Y-71037605D01*
X197246089Y-70964309D01*
X197254640Y-70908255D01*
X197275482Y-70867053D01*
X197313787Y-70838312D01*
X197374724Y-70819642D01*
X197463463Y-70808653D01*
X197585174Y-70802953D01*
X197745029Y-70800154D01*
X197948196Y-70797864D01*
X198004356Y-70797151D01*
X198184143Y-70794571D01*
X198322936Y-70791720D01*
X198426667Y-70788105D01*
X198501264Y-70783231D01*
X198552656Y-70776603D01*
X198586775Y-70767727D01*
X198609548Y-70756108D01*
X198626906Y-70741252D01*
X198655724Y-70696407D01*
X198674582Y-70622063D01*
X198682378Y-70513504D01*
X198680059Y-70364013D01*
X198678835Y-70334657D01*
X198674784Y-70289266D01*
X198663980Y-70253949D01*
X198641205Y-70227308D01*
X198601238Y-70207945D01*
X198538861Y-70194462D01*
X198448853Y-70185460D01*
X198325997Y-70179541D01*
X198165073Y-70175309D01*
X197960861Y-70171363D01*
X197944432Y-70171059D01*
X197742471Y-70167579D01*
X197583493Y-70163849D01*
X197462388Y-70157537D01*
X197374040Y-70146313D01*
X197313339Y-70127846D01*
X197275170Y-70099805D01*
X197254420Y-70059859D01*
X197245978Y-70005677D01*
X197244730Y-69934929D01*
X197245562Y-69845284D01*
X197246040Y-69798993D01*
X197249671Y-69704314D01*
X197256061Y-69632634D01*
X197264251Y-69596711D01*
X197295302Y-69569947D01*
X197350368Y-69542126D01*
X197362311Y-69538908D01*
X197424814Y-69531235D01*
X197524686Y-69525180D01*
X197653790Y-69520739D01*
X197803986Y-69517907D01*
X197967135Y-69516680D01*
X198135098Y-69517056D01*
G37*
G36*
X196501614Y-69190192D02*
G01*
X196529527Y-69188842D01*
X196598085Y-69192623D01*
X196735346Y-69229836D01*
X196844764Y-69306771D01*
X196926278Y-69423392D01*
X196964409Y-69532654D01*
X196972694Y-69671157D01*
X196940888Y-69803556D01*
X196872864Y-69920921D01*
X196772496Y-70014323D01*
X196643658Y-70074830D01*
X196555495Y-70120954D01*
X196459531Y-70214962D01*
X196429151Y-70251618D01*
X196310167Y-70393597D01*
X196177197Y-70550295D01*
X196044331Y-70705079D01*
X195972844Y-70788097D01*
X195877113Y-70899908D01*
X195760022Y-71037249D01*
X195616623Y-71205910D01*
X195554846Y-71278535D01*
X195452205Y-71398929D01*
X195331432Y-71540370D01*
X195198040Y-71696419D01*
X195057545Y-71860637D01*
X194915460Y-72026582D01*
X194777300Y-72187818D01*
X194648577Y-72337902D01*
X194534807Y-72470397D01*
X194441504Y-72578863D01*
X194374182Y-72656860D01*
X194270190Y-72776913D01*
X194182187Y-72878409D01*
X194117860Y-72952427D01*
X194072984Y-73003803D01*
X194043337Y-73037369D01*
X194024693Y-73057959D01*
X194012831Y-73070408D01*
X194009744Y-73073398D01*
X194002143Y-73072629D01*
X194019103Y-73034763D01*
X194058860Y-72962878D01*
X194119652Y-72860051D01*
X194199717Y-72729358D01*
X194297290Y-72573877D01*
X194333402Y-72516854D01*
X194460068Y-72316352D01*
X194599069Y-72095699D01*
X194742734Y-71867115D01*
X194883387Y-71642819D01*
X195013356Y-71435029D01*
X195124965Y-71255965D01*
X195138504Y-71234228D01*
X195191202Y-71149913D01*
X195263755Y-71034114D01*
X195351774Y-70893823D01*
X195450872Y-70736033D01*
X195556659Y-70567737D01*
X195664746Y-70395926D01*
X195732130Y-70288698D01*
X195835194Y-70123547D01*
X195916043Y-69991727D01*
X195977295Y-69888435D01*
X196021570Y-69808865D01*
X196051485Y-69748215D01*
X196069658Y-69701680D01*
X196078708Y-69664458D01*
X196079796Y-69650477D01*
X196355551Y-69650477D01*
X196389307Y-69730734D01*
X196408524Y-69752984D01*
X196482375Y-69798574D01*
X196564659Y-69806238D01*
X196641470Y-69776849D01*
X196698904Y-69711281D01*
X196718849Y-69670647D01*
X196732318Y-69620769D01*
X196717934Y-69576811D01*
X196672929Y-69518210D01*
X196656787Y-69500567D01*
X196581010Y-69451547D01*
X196501614Y-69448718D01*
X196425226Y-69492761D01*
X196368869Y-69568296D01*
X196355551Y-69650477D01*
X196079796Y-69650477D01*
X196081254Y-69631743D01*
X196081547Y-69617325D01*
X196108592Y-69475809D01*
X196175624Y-69352278D01*
X196277188Y-69257161D01*
X196287924Y-69250155D01*
X196359226Y-69211898D01*
X196432014Y-69193557D01*
X196501614Y-69190192D01*
G37*
G36*
X198777276Y-73475398D02*
G01*
X198952356Y-73477752D01*
X199085937Y-73481628D01*
X199175686Y-73486984D01*
X199219269Y-73493778D01*
X199267764Y-73523886D01*
X199306386Y-73573446D01*
X199309922Y-73592514D01*
X199315037Y-73657842D01*
X199319668Y-73761510D01*
X199323648Y-73897369D01*
X199326808Y-74059272D01*
X199328979Y-74241071D01*
X199329995Y-74436616D01*
X199330145Y-74542326D01*
X199329886Y-74754034D01*
X199328438Y-74924280D01*
X199325372Y-75057988D01*
X199320260Y-75160082D01*
X199312676Y-75235484D01*
X199302190Y-75289118D01*
X199288377Y-75325909D01*
X199270809Y-75350779D01*
X199249057Y-75368652D01*
X199229286Y-75375131D01*
X199168162Y-75382386D01*
X199084256Y-75385837D01*
X198993262Y-75385350D01*
X198910875Y-75380792D01*
X198852789Y-75372029D01*
X198840347Y-75367750D01*
X198811813Y-75346720D01*
X198789701Y-75307739D01*
X198773267Y-75245720D01*
X198761768Y-75155574D01*
X198754459Y-75032212D01*
X198750595Y-74870547D01*
X198749433Y-74665489D01*
X198749298Y-74149969D01*
X198664388Y-74149969D01*
X198579479Y-74149969D01*
X198579479Y-74697409D01*
X198579350Y-74789805D01*
X198577889Y-74962476D01*
X198574209Y-75095256D01*
X198567582Y-75194083D01*
X198557277Y-75264897D01*
X198542566Y-75313637D01*
X198522718Y-75346242D01*
X198497003Y-75368652D01*
X198494517Y-75369976D01*
X198452854Y-75378398D01*
X198378921Y-75384432D01*
X198286933Y-75386847D01*
X198246740Y-75387087D01*
X198172825Y-75386788D01*
X198116059Y-75380959D01*
X198074094Y-75364228D01*
X198044584Y-75331226D01*
X198025183Y-75276583D01*
X198013543Y-75194929D01*
X198007317Y-75080892D01*
X198004159Y-74929104D01*
X198001722Y-74734194D01*
X197994070Y-74149969D01*
X197898618Y-74149969D01*
X197803166Y-74149969D01*
X197803166Y-74730828D01*
X197803213Y-74816875D01*
X197802950Y-74993852D01*
X197800279Y-75129899D01*
X197792876Y-75230385D01*
X197778413Y-75300679D01*
X197754564Y-75346152D01*
X197719003Y-75372173D01*
X197669402Y-75384111D01*
X197603437Y-75387336D01*
X197518780Y-75387218D01*
X197481004Y-75387487D01*
X197418754Y-75387781D01*
X197368504Y-75384043D01*
X197328980Y-75371825D01*
X197298906Y-75346679D01*
X197277009Y-75304157D01*
X197262014Y-75239811D01*
X197252646Y-75149191D01*
X197247632Y-75027851D01*
X197245696Y-74871341D01*
X197245564Y-74675214D01*
X197245962Y-74435021D01*
X197246140Y-74310190D01*
X197246905Y-74101492D01*
X197248388Y-73934115D01*
X197250785Y-73803304D01*
X197254294Y-73704306D01*
X197259110Y-73632365D01*
X197265432Y-73582727D01*
X197273455Y-73550638D01*
X197283378Y-73531344D01*
X197286035Y-73527922D01*
X197297863Y-73516077D01*
X197315561Y-73506444D01*
X197343868Y-73498745D01*
X197387522Y-73492708D01*
X197451264Y-73488056D01*
X197539830Y-73484513D01*
X197657960Y-73481805D01*
X197810393Y-73479657D01*
X198001867Y-73477792D01*
X198237122Y-73475936D01*
X198311958Y-73475426D01*
X198563032Y-73474608D01*
X198777276Y-73475398D01*
G37*
G36*
X198910446Y-62461116D02*
G01*
X199022406Y-62514166D01*
X199121698Y-62592454D01*
X199177357Y-62658435D01*
X199257071Y-62797183D01*
X199307448Y-62950285D01*
X199311668Y-62979534D01*
X199317623Y-63061612D01*
X199321725Y-63174888D01*
X199323633Y-63308453D01*
X199323009Y-63451402D01*
X199322641Y-63477112D01*
X199319785Y-63623368D01*
X199315440Y-63731969D01*
X199308496Y-63812368D01*
X199297838Y-63874014D01*
X199282356Y-63926357D01*
X199260938Y-63978849D01*
X199240071Y-64021231D01*
X199151145Y-64146753D01*
X199038910Y-64244535D01*
X198914426Y-64304194D01*
X198909540Y-64305568D01*
X198829850Y-64320490D01*
X198724837Y-64331330D01*
X198615869Y-64335824D01*
X198610715Y-64335844D01*
X198463350Y-64325681D01*
X198347995Y-64290646D01*
X198252348Y-64224935D01*
X198164108Y-64122746D01*
X198112065Y-64037911D01*
X198069704Y-63933665D01*
X198038615Y-63806519D01*
X198016765Y-63648023D01*
X198002121Y-63449732D01*
X198001679Y-63441451D01*
X197993570Y-63308916D01*
X197984994Y-63216621D01*
X197974617Y-63156708D01*
X197961102Y-63121322D01*
X197943115Y-63102608D01*
X197942564Y-63102263D01*
X197900704Y-63090765D01*
X197858206Y-63119107D01*
X197850902Y-63127143D01*
X197833058Y-63159481D01*
X197822183Y-63209989D01*
X197816766Y-63288763D01*
X197815296Y-63405899D01*
X197815296Y-63649781D01*
X197906270Y-63722763D01*
X197997244Y-63795745D01*
X197997244Y-64034614D01*
X197996496Y-64139358D01*
X197992766Y-64214397D01*
X197984017Y-64261101D01*
X197968215Y-64289906D01*
X197943327Y-64311248D01*
X197910650Y-64330074D01*
X197812304Y-64351716D01*
X197703244Y-64335409D01*
X197591133Y-64285269D01*
X197483637Y-64205409D01*
X197388420Y-64099944D01*
X197313148Y-63972987D01*
X197294431Y-63929646D01*
X197279775Y-63885028D01*
X197269569Y-63833399D01*
X197263016Y-63766458D01*
X197259321Y-63675905D01*
X197257688Y-63553436D01*
X197257321Y-63390752D01*
X197257321Y-63384816D01*
X197257690Y-63223889D01*
X197259322Y-63102815D01*
X197263043Y-63013197D01*
X197269679Y-62946642D01*
X197280057Y-62894754D01*
X197295004Y-62849137D01*
X197315347Y-62801397D01*
X197349429Y-62734725D01*
X197438742Y-62617587D01*
X197555098Y-62532034D01*
X197704026Y-62474613D01*
X197891055Y-62441872D01*
X197907346Y-62440317D01*
X198068221Y-62443090D01*
X198205703Y-62483745D01*
X198329121Y-62564905D01*
X198410333Y-62651440D01*
X198485952Y-62783119D01*
X198538631Y-62948418D01*
X198569447Y-63150910D01*
X198579479Y-63394167D01*
X198580582Y-63464225D01*
X198590974Y-63584710D01*
X198612768Y-63659847D01*
X198646508Y-63691010D01*
X198692741Y-63679574D01*
X198723124Y-63652411D01*
X198749706Y-63596966D01*
X198764970Y-63510260D01*
X198771139Y-63383908D01*
X198769728Y-63326166D01*
X198757705Y-63228742D01*
X198736422Y-63144623D01*
X198709232Y-63085545D01*
X198679489Y-63063245D01*
X198657943Y-63055781D01*
X198617602Y-63025122D01*
X198600371Y-62998313D01*
X198587936Y-62948029D01*
X198581386Y-62867445D01*
X198579479Y-62747510D01*
X198580239Y-62641838D01*
X198583983Y-62566938D01*
X198592740Y-62520320D01*
X198608536Y-62491566D01*
X198633397Y-62470256D01*
X198696060Y-62442632D01*
X198797702Y-62436280D01*
X198910446Y-62461116D01*
G37*
G36*
X196517397Y-64589977D02*
G01*
X196517080Y-64743460D01*
X196515817Y-64925892D01*
X196513704Y-65087617D01*
X196510863Y-65223072D01*
X196507418Y-65326695D01*
X196503490Y-65392923D01*
X196499202Y-65416195D01*
X196492267Y-65410235D01*
X196463297Y-65370626D01*
X196417332Y-65300029D01*
X196359008Y-65205664D01*
X196292957Y-65094753D01*
X196259175Y-65037106D01*
X196195404Y-64928587D01*
X196141544Y-64837328D01*
X196102448Y-64771540D01*
X196082970Y-64739437D01*
X196078707Y-64734438D01*
X196056535Y-64730918D01*
X196016599Y-64749112D01*
X195952691Y-64792481D01*
X195858603Y-64864484D01*
X195811273Y-64902099D01*
X195684336Y-65008768D01*
X195573285Y-65113589D01*
X195467863Y-65227396D01*
X195357808Y-65361026D01*
X195232861Y-65525312D01*
X195181638Y-65596587D01*
X195020158Y-65848465D01*
X194865421Y-66128571D01*
X194724832Y-66421815D01*
X194605790Y-66713105D01*
X194515700Y-66987353D01*
X194473975Y-67136060D01*
X194658723Y-67403260D01*
X194675032Y-67426922D01*
X194741033Y-67524326D01*
X194794537Y-67605899D01*
X194830412Y-67663685D01*
X194843524Y-67689727D01*
X194833455Y-67694917D01*
X194784591Y-67700460D01*
X194704360Y-67702775D01*
X194603058Y-67701364D01*
X194507662Y-67698910D01*
X194430082Y-67699552D01*
X194384051Y-67705358D01*
X194360354Y-67717650D01*
X194349777Y-67737754D01*
X194336421Y-67797100D01*
X194319328Y-67918323D01*
X194304906Y-68074811D01*
X194293329Y-68258778D01*
X194284772Y-68462438D01*
X194279410Y-68678003D01*
X194277416Y-68897689D01*
X194278967Y-69113709D01*
X194284236Y-69318276D01*
X194293397Y-69503604D01*
X194306627Y-69661908D01*
X194319578Y-69779020D01*
X194334200Y-69900211D01*
X194350113Y-70017042D01*
X194369707Y-70146891D01*
X194395372Y-70307137D01*
X194409035Y-70354503D01*
X194442277Y-70387151D01*
X194508869Y-70412603D01*
X194528424Y-70418544D01*
X194607871Y-70443998D01*
X194670174Y-70465770D01*
X194730209Y-70488595D01*
X194646552Y-70578642D01*
X194629929Y-70596439D01*
X194567887Y-70662556D01*
X194526181Y-70712860D01*
X194503121Y-70757893D01*
X194497014Y-70808197D01*
X194506168Y-70874314D01*
X194528891Y-70966786D01*
X194563491Y-71096154D01*
X194569350Y-71118318D01*
X194603339Y-71246218D01*
X194634895Y-71363942D01*
X194660721Y-71459239D01*
X194677520Y-71519859D01*
X194684417Y-71544964D01*
X194692471Y-71592534D01*
X194685829Y-71635801D01*
X194660604Y-71689779D01*
X194612911Y-71769481D01*
X194609859Y-71774411D01*
X194556561Y-71853716D01*
X194520716Y-71891058D01*
X194500177Y-71888703D01*
X194493515Y-71875289D01*
X194471622Y-71820437D01*
X194441640Y-71737677D01*
X194408024Y-71639081D01*
X194365017Y-71506701D01*
X194272064Y-71198321D01*
X194191077Y-70892642D01*
X194119834Y-70579422D01*
X194056112Y-70248419D01*
X193997692Y-69889389D01*
X193942350Y-69492089D01*
X193938459Y-69458428D01*
X193928472Y-69329956D01*
X193920757Y-69165491D01*
X193915319Y-68974355D01*
X193912163Y-68765869D01*
X193911293Y-68549355D01*
X193912715Y-68334133D01*
X193916433Y-68129526D01*
X193922452Y-67944855D01*
X193930777Y-67789441D01*
X193941412Y-67672605D01*
X193987185Y-67354752D01*
X194088687Y-66847399D01*
X194221526Y-66374318D01*
X194386711Y-65932952D01*
X194585253Y-65520742D01*
X194818162Y-65135131D01*
X195086449Y-64773560D01*
X195141497Y-64707726D01*
X195237705Y-64597916D01*
X195332625Y-64494916D01*
X195411993Y-64414460D01*
X195482436Y-64350356D01*
X195662186Y-64207717D01*
X195863012Y-64071564D01*
X196072000Y-63949695D01*
X196276238Y-63849906D01*
X196462812Y-63779993D01*
X196517397Y-63763509D01*
X196517397Y-64589977D01*
G37*
G36*
X198393598Y-60675258D02*
G01*
X198647162Y-60585264D01*
X198677166Y-60574634D01*
X198819466Y-60525193D01*
X198946980Y-60482422D01*
X199052007Y-60448801D01*
X199126843Y-60426809D01*
X199163786Y-60418928D01*
X199166546Y-60419017D01*
X199217611Y-60437517D01*
X199271986Y-60478475D01*
X199273027Y-60479518D01*
X199303935Y-60516496D01*
X199321628Y-60559122D01*
X199329647Y-60621662D01*
X199331533Y-60718385D01*
X199329428Y-60800758D01*
X199314529Y-60894779D01*
X199278629Y-60960913D01*
X199213954Y-61011220D01*
X199112732Y-61057755D01*
X198979766Y-61110761D01*
X198979766Y-61413579D01*
X198979766Y-61716397D01*
X199112732Y-61769403D01*
X199210209Y-61813416D01*
X199276197Y-61861484D01*
X199313325Y-61923314D01*
X199328276Y-62010222D01*
X199327732Y-62133525D01*
X199327554Y-62137675D01*
X199319174Y-62244331D01*
X199305539Y-62323236D01*
X199288416Y-62364023D01*
X199247090Y-62386435D01*
X199176273Y-62391486D01*
X199074383Y-62376022D01*
X198937431Y-62339417D01*
X198761428Y-62281041D01*
X198745039Y-62275261D01*
X198617318Y-62230360D01*
X198458584Y-62174742D01*
X198281653Y-62112889D01*
X198099341Y-62049281D01*
X197924465Y-61988401D01*
X197869503Y-61969290D01*
X197691361Y-61907156D01*
X197552525Y-61857903D01*
X197447854Y-61819111D01*
X197372207Y-61788358D01*
X197320442Y-61763222D01*
X197287418Y-61741280D01*
X197267994Y-61720113D01*
X197257029Y-61697297D01*
X197249381Y-61670410D01*
X197247779Y-61664263D01*
X197239052Y-61637447D01*
X197227492Y-61627902D01*
X197208269Y-61640240D01*
X197176551Y-61679070D01*
X197127507Y-61749001D01*
X197056306Y-61854644D01*
X197052303Y-61860602D01*
X196910573Y-62061186D01*
X196755801Y-62259790D01*
X196583466Y-62461283D01*
X196389050Y-62670534D01*
X196168036Y-62892411D01*
X195915903Y-63131785D01*
X195628133Y-63393523D01*
X195471992Y-63535066D01*
X195207078Y-63787067D01*
X194976955Y-64024818D01*
X194776848Y-64254773D01*
X194601981Y-64483386D01*
X194447577Y-64717110D01*
X194308863Y-64962398D01*
X194181062Y-65225705D01*
X194059399Y-65513484D01*
X193964831Y-65769860D01*
X193867883Y-66085339D01*
X193784776Y-66423077D01*
X193713443Y-66791626D01*
X193651816Y-67199539D01*
X193642868Y-67287666D01*
X193633965Y-67431568D01*
X193627190Y-67607871D01*
X193622550Y-67807770D01*
X193620051Y-68022462D01*
X193619700Y-68243141D01*
X193621504Y-68461003D01*
X193625468Y-68667244D01*
X193631599Y-68853058D01*
X193639905Y-69009643D01*
X193650390Y-69128192D01*
X193657606Y-69187369D01*
X193747644Y-69802329D01*
X193861505Y-70389966D01*
X193998156Y-70946023D01*
X194156561Y-71466246D01*
X194335685Y-71946377D01*
X194407408Y-72120306D01*
X194283887Y-72316369D01*
X194270083Y-72338257D01*
X194198366Y-72450751D01*
X194147458Y-72527631D01*
X194113690Y-72573995D01*
X194093388Y-72594942D01*
X194082884Y-72595571D01*
X194063536Y-72564774D01*
X194027051Y-72498107D01*
X193978165Y-72404623D01*
X193921232Y-72292953D01*
X193860608Y-72171730D01*
X193800649Y-72049584D01*
X193745708Y-71935148D01*
X193700143Y-71837052D01*
X193678294Y-71788520D01*
X193429933Y-71188991D01*
X193216563Y-70577039D01*
X193036781Y-69947222D01*
X192889186Y-69294095D01*
X192772374Y-68612215D01*
X192684944Y-67896138D01*
X192679818Y-67834237D01*
X192672317Y-67693929D01*
X192666710Y-67521001D01*
X192662982Y-67324467D01*
X192661115Y-67113338D01*
X192661096Y-66896625D01*
X192662908Y-66683341D01*
X192666535Y-66482498D01*
X192671963Y-66303107D01*
X192679175Y-66154180D01*
X192688155Y-66044729D01*
X192698490Y-65918193D01*
X192697559Y-65645125D01*
X192668093Y-65339923D01*
X192609846Y-65000995D01*
X192522572Y-64626747D01*
X192406026Y-64215585D01*
X192386636Y-64151625D01*
X192317548Y-63913396D01*
X192264093Y-63706113D01*
X192224433Y-63518399D01*
X192196731Y-63338881D01*
X192179149Y-63156181D01*
X192169849Y-62958925D01*
X192166995Y-62735738D01*
X192167078Y-62676195D01*
X192170947Y-62458007D01*
X192181925Y-62271763D01*
X192201931Y-62104321D01*
X192232884Y-61942540D01*
X192276705Y-61773279D01*
X192335312Y-61583398D01*
X192349121Y-61542952D01*
X192415818Y-61375918D01*
X192501768Y-61190926D01*
X192598771Y-61004003D01*
X192698627Y-60831177D01*
X192793136Y-60688477D01*
X192923741Y-60509220D01*
X192924535Y-60723319D01*
X192924585Y-60734142D01*
X192928791Y-60899643D01*
X192941238Y-61040033D01*
X192964703Y-61177160D01*
X193001959Y-61332877D01*
X193033332Y-61444126D01*
X193107384Y-61652711D01*
X193189929Y-61821551D01*
X193279361Y-61949404D01*
X193374076Y-62035028D01*
X193472468Y-62077179D01*
X193572934Y-62074615D01*
X193673869Y-62026095D01*
X193773667Y-61930374D01*
X193790932Y-61908935D01*
X193837753Y-61842316D01*
X193873265Y-61772424D01*
X193898921Y-61691730D01*
X193916178Y-61592703D01*
X193926488Y-61467814D01*
X193928140Y-61413579D01*
X198118543Y-61413579D01*
X198124328Y-61419126D01*
X198162905Y-61437499D01*
X198224601Y-61461296D01*
X198293936Y-61485056D01*
X198355429Y-61503318D01*
X198393598Y-61510618D01*
X198397189Y-61508157D01*
X198406095Y-61474367D01*
X198409661Y-61413579D01*
X198409253Y-61391883D01*
X198403660Y-61338080D01*
X198393598Y-61316540D01*
X198377874Y-61318581D01*
X198325798Y-61332191D01*
X198258345Y-61353957D01*
X198190998Y-61378419D01*
X198139237Y-61400113D01*
X198118543Y-61413579D01*
X193928140Y-61413579D01*
X193931308Y-61309533D01*
X193932091Y-61110332D01*
X193931855Y-61064302D01*
X193927630Y-60837601D01*
X193917410Y-60630240D01*
X193899824Y-60425599D01*
X193873502Y-60207056D01*
X193837074Y-59957992D01*
X193817546Y-59819297D01*
X193790285Y-59556095D01*
X193774401Y-59291726D01*
X193770240Y-59038186D01*
X193778144Y-58807471D01*
X193798459Y-58611573D01*
X193854990Y-58323387D01*
X193949192Y-58001104D01*
X194071172Y-57697786D01*
X194218066Y-57418162D01*
X194387010Y-57166963D01*
X194575138Y-56948922D01*
X194779586Y-56768767D01*
X194997491Y-56631232D01*
X195139380Y-56558504D01*
X195065255Y-56651037D01*
X195001360Y-56744079D01*
X194919608Y-56899519D01*
X194841618Y-57086288D01*
X194770931Y-57294751D01*
X194711087Y-57515273D01*
X194665629Y-57738221D01*
X194655033Y-57809150D01*
X194634903Y-58026049D01*
X194627969Y-58261092D01*
X194633980Y-58498000D01*
X194652683Y-58720499D01*
X194683825Y-58912310D01*
X194714649Y-59026457D01*
X194768628Y-59170262D01*
X194833709Y-59302417D01*
X194903768Y-59410816D01*
X194972680Y-59483351D01*
X195042197Y-59526097D01*
X195135904Y-59546673D01*
X195231115Y-59521463D01*
X195333435Y-59449949D01*
X195401535Y-59379013D01*
X195497233Y-59228124D01*
X195571925Y-59034961D01*
X195625815Y-58798940D01*
X195659107Y-58519476D01*
X195675435Y-58306080D01*
X195741964Y-58369819D01*
X195784061Y-58420752D01*
X195843119Y-58518391D01*
X195901938Y-58640009D01*
X195954310Y-58772484D01*
X195994027Y-58902691D01*
X196046841Y-59192692D01*
X196064493Y-59524068D01*
X196041554Y-59864324D01*
X195979011Y-60205875D01*
X195877850Y-60541134D01*
X195739059Y-60862514D01*
X195718494Y-60903931D01*
X195681022Y-60983481D01*
X195657017Y-61040473D01*
X195650942Y-61064666D01*
X195650961Y-61064685D01*
X195677467Y-61059133D01*
X195732042Y-61027098D01*
X195806682Y-60974518D01*
X195893387Y-60907334D01*
X195984155Y-60831483D01*
X196070983Y-60752905D01*
X196112198Y-60713011D01*
X196326729Y-60477250D01*
X196517973Y-60219167D01*
X196683657Y-59944703D01*
X196821511Y-59659799D01*
X196929263Y-59370397D01*
X197004641Y-59082437D01*
X197045376Y-58801861D01*
X197049195Y-58534610D01*
X197013828Y-58286624D01*
X196997414Y-58208802D01*
X196988292Y-58147415D01*
X196989274Y-58119480D01*
X197004194Y-58126309D01*
X197047208Y-58161072D01*
X197110499Y-58218748D01*
X197186628Y-58292805D01*
X197371968Y-58478145D01*
X198265262Y-58478145D01*
X198408770Y-58478394D01*
X198624315Y-58479813D01*
X198813810Y-58482392D01*
X198972764Y-58486018D01*
X199096681Y-58490578D01*
X199181070Y-58495960D01*
X199221436Y-58502052D01*
X199267512Y-58530753D01*
X199306386Y-58580896D01*
X199311096Y-58603616D01*
X199317173Y-58672965D01*
X199322100Y-58778430D01*
X199325889Y-58912958D01*
X199328551Y-59069498D01*
X199330097Y-59240997D01*
X199330539Y-59420404D01*
X199329887Y-59600666D01*
X199328152Y-59774732D01*
X199325347Y-59935549D01*
X199321482Y-60076065D01*
X199316569Y-60189228D01*
X199310618Y-60267987D01*
X199303641Y-60305289D01*
X199286307Y-60335147D01*
X199256698Y-60366616D01*
X199213133Y-60384393D01*
X199144106Y-60392334D01*
X199038110Y-60394297D01*
X199005641Y-60394412D01*
X198931330Y-60393516D01*
X198873872Y-60386658D01*
X198831007Y-60368521D01*
X198800476Y-60333786D01*
X198780019Y-60277136D01*
X198767378Y-60193253D01*
X198760292Y-60076819D01*
X198756502Y-59922517D01*
X198753750Y-59725028D01*
X198746071Y-59157419D01*
X198662775Y-59157419D01*
X198579479Y-59157419D01*
X198579479Y-59689555D01*
X198578561Y-59879802D01*
X198575186Y-60039010D01*
X198568716Y-60160327D01*
X198558512Y-60249199D01*
X198543936Y-60311073D01*
X198524351Y-60351394D01*
X198499117Y-60375608D01*
X198496823Y-60376816D01*
X198454698Y-60385481D01*
X198380381Y-60391604D01*
X198288362Y-60393925D01*
X198276298Y-60393885D01*
X198185711Y-60391016D01*
X198114650Y-60384504D01*
X198077606Y-60375608D01*
X198053602Y-60353086D01*
X198033723Y-60313788D01*
X198018890Y-60253234D01*
X198008463Y-60165980D01*
X198001805Y-60046579D01*
X197998278Y-59889586D01*
X197997244Y-59689555D01*
X197997244Y-59157419D01*
X197903188Y-59157419D01*
X197809132Y-59157419D01*
X197809949Y-59721768D01*
X197809970Y-59778911D01*
X197808793Y-59972042D01*
X197805497Y-60120844D01*
X197799927Y-60228623D01*
X197791928Y-60298683D01*
X197781348Y-60334328D01*
X197775965Y-60344406D01*
X197753516Y-60397170D01*
X197723301Y-60477332D01*
X197688816Y-60574471D01*
X197653558Y-60678165D01*
X197621024Y-60777994D01*
X197594710Y-60863536D01*
X197578115Y-60924370D01*
X197574734Y-60950075D01*
X197574735Y-60950076D01*
X197586282Y-60949947D01*
X197617017Y-60942340D01*
X197670248Y-60926131D01*
X197749279Y-60900196D01*
X197857417Y-60863410D01*
X197997969Y-60814649D01*
X198174240Y-60752787D01*
X198389535Y-60676700D01*
X198393598Y-60675258D01*
G37*
D15*
%TO.C,RESET*%
X146250000Y-59500000D02*
X147750000Y-59500000D01*
X150250000Y-60750000D02*
X150250000Y-65250000D01*
X143750000Y-65250000D02*
X143750000Y-60750000D01*
X147750000Y-66500000D02*
X146250000Y-66500000D01*
%TD*%
%LPC*%
D18*
%TO.C,J2*%
X186113100Y-79870000D02*
G75*
G03*
X186113100Y-79870000I-613100J0D01*
G01*
X186113100Y-74370000D02*
G75*
G03*
X186113100Y-74370000I-613100J0D01*
G01*
D19*
X184188100Y-87170000D02*
G75*
G03*
X184188100Y-87170000I-788100J0D01*
G01*
D18*
X181913100Y-74370000D02*
G75*
G03*
X181913100Y-74370000I-613100J0D01*
G01*
G36*
X182526200Y-81096200D02*
G01*
X180073800Y-81096200D01*
X180073800Y-78643800D01*
X182526200Y-78643800D01*
X182526200Y-81096200D01*
G37*
D20*
X182526200Y-81096200D02*
X180073800Y-81096200D01*
X180073800Y-78643800D01*
X182526200Y-78643800D01*
X182526200Y-81096200D01*
%TD*%
D21*
%TO.C,JP3*%
X150289999Y-69774999D03*
D22*
X147749999Y-69774999D03*
%TD*%
D21*
%TO.C,JP2*%
X152579999Y-74499999D03*
D22*
X150039999Y-74499999D03*
X147499999Y-74499999D03*
%TD*%
D23*
%TO.C,JP1*%
X177750000Y-70100000D03*
D24*
X177750000Y-71400000D03*
%TD*%
D25*
%TO.C,J2*%
X183400000Y-87170000D03*
%TD*%
D26*
%TO.C,D1*%
X167599999Y-64199999D03*
D27*
X167600000Y-66740000D03*
%TD*%
D28*
%TO.C,J3*%
X170750000Y-75500000D03*
X157050000Y-75500000D03*
X156150000Y-89000000D03*
X171850000Y-89000000D03*
%TD*%
D29*
%TO.C,RESET*%
X144750000Y-59750000D03*
X144750000Y-66250000D03*
X149250000Y-59750000D03*
X149250000Y-66250000D03*
%TD*%
D30*
%TO.C,J1*%
X176750000Y-56250000D03*
D31*
X176750000Y-58790000D03*
X179290000Y-56250000D03*
X179290000Y-58790000D03*
X181830000Y-56250000D03*
X181830000Y-58790000D03*
%TD*%
M02*
