M48
; DRILL file {KiCad (7.0.0)} date Sun Feb 23 22:01:52 2025
; FORMAT={-:-/ absolute / inch / decimal}
; #@! TF.CreationDate,2025-02-23T22:01:52+09:00
; #@! TF.GenerationSoftware,Kicad,Pcbnew,(7.0.0)
; #@! TF.FileFunction,Plated,1,2,PTH
FMAT,2
INCH
; #@! TA.AperFunction,Plated,PTH,ViaDrill
T1C0.0157
; #@! TA.AperFunction,Plated,PTH,ComponentDrill
T2C0.0354
; #@! TA.AperFunction,Plated,PTH,ComponentDrill
T3C0.0394
; #@! TA.AperFunction,Plated,PTH,ComponentDrill
T4C0.0433
; #@! TA.AperFunction,Plated,PTH,ComponentDrill
T5C0.0697
; #@! TA.AperFunction,Plated,PTH,ComponentDrill
T6C0.0709
%
G90
G05
T1
X5.7874Y-3.061
X5.7874Y-3.1004
X5.7874Y-3.189
X5.7874Y-3.2283
X5.8268Y-3.061
X5.8268Y-3.1004
X5.8268Y-3.189
X5.8268Y-3.2283
X5.8661Y-3.061
X5.8661Y-3.1004
X5.8661Y-3.189
X5.8661Y-3.2283
X6.1102Y-3.3701
X6.2126Y-3.1811
X6.2894Y-2.5492
X6.2992Y-2.185
X6.315Y-3.2756
X6.3189Y-2.3327
X6.3386Y-2.6673
X6.3484Y-2.5492
X6.4331Y-2.5433
X6.5256Y-2.8248
X6.5551Y-3.1496
X6.6063Y-3.189
X6.6142Y-2.2992
X6.624Y-2.8248
X6.6535Y-2.1555
X6.7008Y-2.1575
X6.7244Y-2.7087
X6.752Y-2.2835
X6.752Y-2.3327
X6.752Y-2.4213
X6.752Y-2.3809
X6.811Y-2.4803
X6.9606Y-2.4803
X6.9843Y-2.6693
X6.998Y-2.8937
X7.0965Y-2.7756
X7.1555Y-2.7185
X7.1654Y-2.4803
X7.2441Y-2.4803
X7.2638Y-2.6969
X7.2638Y-2.7559
X7.3228Y-2.4803
X7.3622Y-2.313
X7.3622Y-2.6299
X7.4114Y-2.313
X7.4803Y-2.9134
X7.5197Y-3.1496
X7.5512Y-3.189
X7.5689Y-2.5295
X7.5984Y-2.937
X7.5984Y-2.9843
X7.6102Y-2.5295
X7.6181Y-2.3031
X7.6536Y-2.5295
X7.6673Y-2.2539
X7.6673Y-2.3031
X7.693Y-2.5295
X7.7165Y-2.2539
X7.7165Y-2.3031
X7.7165Y-3.1102
X7.7165Y-3.1496
X7.7165Y-3.189
X7.7165Y-3.3071
X7.7165Y-3.3465
X7.7165Y-3.3858
X7.7165Y-3.6614
X7.7264Y-2.6378
X7.7557Y-3.3456
X7.7559Y-3.1102
X7.7559Y-3.1496
X7.7559Y-3.189
X7.7559Y-3.3071
X7.7559Y-3.3858
X7.7756Y-2.2539
X7.7756Y-2.3031
X7.7953Y-3.1102
X7.7953Y-3.1496
X7.7953Y-3.189
X7.7953Y-3.3071
X7.7953Y-3.3465
X7.7953Y-3.3858
X7.8051Y-2.5886
T2
X6.5984Y-2.5276
X6.5984Y-2.6276
T3
X5.8071Y-2.9331
X5.8169Y-2.747
X5.9071Y-2.9331
X5.9169Y-2.747
X6.0071Y-2.9331
X6.9587Y-2.2146
X6.9587Y-2.3146
X7.0587Y-2.2146
X7.0587Y-2.3146
X7.1587Y-2.2146
X7.1587Y-2.3146
T4
X5.6988Y-2.3524
X5.6988Y-2.6083
X5.876Y-2.3524
X5.876Y-2.6083
T5
X6.1476Y-3.5039
X6.1831Y-2.9724
X6.7224Y-2.9724
X6.7657Y-3.5039
T6
X7.1378Y-2.928
X7.1378Y-3.1445
X7.3031Y-2.928
X7.3031Y-3.1445
T0
M30
